<svg xmlns="http://www.w3.org/2000/svg" width="389" height="373" viewBox="0 0 389 373" fill="none"><g clip-path="url(#clip0_2127_9345)"><path d="M350.312 361.363C351.785 361.455 352.599 359.626 351.485 358.56L351.374 358.12C351.389 358.084 351.403 358.049 351.418 358.014C352.908 354.464 357.956 354.489 359.433 358.044C360.744 361.199 362.413 364.359 362.824 367.695C363.009 369.168 362.926 370.668 362.599 372.113C365.671 365.408 367.287 358.086 367.287 350.723C367.287 348.873 367.186 347.023 366.978 345.178C366.808 343.668 366.573 342.168 366.269 340.681C364.625 332.646 361.065 324.993 355.93 318.601C353.462 317.253 351.403 315.145 350.16 312.618C349.713 311.707 349.363 310.727 349.197 309.728C349.478 309.765 350.257 305.49 350.045 305.228C350.436 304.634 351.137 304.339 351.564 303.76C353.691 300.879 356.621 301.382 358.15 305.297C361.417 306.944 361.449 309.677 359.444 312.305C358.169 313.978 357.993 316.24 356.874 318.03C356.99 318.178 357.109 318.32 357.224 318.468C359.336 321.174 361.162 324.082 362.701 327.138C362.266 323.742 362.908 319.651 364.003 317.013C365.25 314.008 367.586 311.478 369.644 308.88C372.115 305.76 377.183 307.121 377.618 311.077C377.622 311.115 377.627 311.153 377.631 311.192C377.325 311.364 377.026 311.547 376.733 311.74C375.065 312.843 375.642 315.427 377.618 315.732L377.663 315.739C377.552 316.838 377.363 317.929 377.087 319.001C379.727 329.202 374.028 332.917 365.892 333.084C365.712 333.176 365.537 333.268 365.357 333.355C366.182 335.674 366.84 338.054 367.328 340.465C367.766 342.596 368.07 344.75 368.24 346.913C368.452 349.642 368.434 352.384 368.203 355.109L368.217 355.012C368.802 352.012 370.432 349.209 372.8 347.267C376.326 344.372 381.308 343.306 385.112 340.98C386.944 339.859 389.29 341.307 388.971 343.429L388.955 343.53C388.389 343.76 387.836 344.027 387.302 344.326C386.996 344.499 386.697 344.682 386.404 344.875C384.736 345.977 385.313 348.561 387.289 348.866L387.334 348.873C387.366 348.878 387.394 348.882 387.426 348.887C386.454 351.192 385.1 353.332 383.406 355.178C381.755 364.082 374.667 364.927 367.084 362.334H367.08C366.251 365.942 365.04 369.467 363.483 372.827H350.634C350.588 372.684 350.547 372.537 350.505 372.394C351.693 372.468 352.891 372.399 354.061 372.182C353.107 371.013 352.154 369.835 351.201 368.666C351.178 368.643 351.159 368.62 351.141 368.597C350.657 367.999 350.169 367.405 349.685 366.807L349.685 366.806C349.655 364.97 349.875 363.139 350.312 361.363L350.312 361.363V361.363Z" fill="#F2F2F2"></path><path d="M113.908 372.152C113.908 372.622 114.286 373 114.756 373H388.052C388.522 373 388.9 372.622 388.9 372.152C388.9 371.682 388.522 371.304 388.052 371.304H114.756C114.286 371.304 113.908 371.682 113.908 372.152Z" fill="#CCCCCC"></path><path d="M155.378 372.639H29.5826C14.2441 372.639 1.76514 360.169 1.76514 344.841V74.6931C1.76514 59.3656 14.2441 46.8956 29.5826 46.8956H155.378C170.716 46.8956 183.195 59.3656 183.195 74.6931V344.841C183.195 360.169 170.716 372.639 155.378 372.639Z" fill="#3F3D56"></path><path d="M183.195 146.265C182.546 146.265 182.018 146.792 182.018 147.441V185.072C182.018 185.72 182.546 186.248 183.195 186.248C183.844 186.248 184.372 185.72 184.372 185.072V147.441C184.372 146.792 183.844 146.265 183.195 146.265Z" fill="#3F3D56"></path><path d="M180.547 74.6932V344.836C180.547 358.178 170.156 369.091 157.017 369.937H157.011C156.817 369.949 156.623 369.961 156.423 369.967C156.076 369.984 155.728 369.99 155.375 369.99C155.375 369.99 154.081 369.896 151.715 369.72C149.327 369.543 145.849 369.279 141.512 368.932C140.212 368.832 138.841 368.72 137.394 368.603C134.51 368.367 131.345 368.109 127.95 367.815C126.596 367.703 125.196 367.58 123.766 367.456C116.458 366.827 108.273 366.092 99.6414 365.257C98.1822 365.122 96.7112 364.981 95.2284 364.834C94.84 364.792 94.4458 364.757 94.0516 364.716C87.8968 364.11 4.41321 347.988 4.41321 344.836V74.6932C4.41321 60.7992 15.6812 49.5393 29.5853 49.5393H44.6132C47.0139 49.5393 48.9439 51.4091 49.1498 53.8022C49.1675 53.961 49.1851 54.1197 49.2145 54.2785C49.65 56.6833 51.8565 58.3591 54.3042 58.3591H130.656C133.104 58.3591 135.311 56.6833 135.746 54.2785C135.775 54.1197 135.793 53.961 135.811 53.8022C136.017 51.4091 137.947 49.5393 140.347 49.5393H155.375C169.279 49.5393 180.547 60.7992 180.547 74.6932Z" fill="white"></path><path d="M1.17681 118.042C0.527781 118.042 0 118.569 0 119.218V128.625C0 129.274 0.527788 129.801 1.17681 129.801C1.82583 129.801 2.35362 129.274 2.35362 128.625V119.218C2.35362 118.569 1.82583 118.042 1.17681 118.042Z" fill="#3F3D56"></path><path d="M1.17681 146.265C0.527781 146.265 0 146.792 0 147.441V165.668C0 166.317 0.527788 166.844 1.17681 166.844C1.82583 166.844 2.35362 166.317 2.35362 165.668V147.441C2.35362 146.792 1.82583 146.265 1.17681 146.265Z" fill="#3F3D56"></path><path d="M1.17681 172.136C0.527781 172.136 0 172.664 0 173.312V191.54C0 192.188 0.527788 192.716 1.17681 192.716C1.82583 192.716 2.35362 192.188 2.35362 191.54V173.312C2.35362 172.664 1.82583 172.136 1.17681 172.136Z" fill="#3F3D56"></path><path d="M44.2035 53.6575H21.698C21.5758 53.6575 21.4768 53.7564 21.4768 53.8785V56.3764C21.4768 56.4984 21.5758 56.5974 21.698 56.5974H44.2035C44.3257 56.5974 44.4247 56.4984 44.4247 56.3764V53.8785C44.4247 53.7564 44.3257 53.6575 44.2035 53.6575Z" fill="#E6E6E6"></path><path d="M144.066 56.5974C145.366 56.5974 146.42 55.5444 146.42 54.2455C146.42 52.9466 145.366 51.8936 144.066 51.8936C142.766 51.8936 141.712 52.9466 141.712 54.2455C141.712 55.5444 142.766 56.5974 144.066 56.5974Z" fill="#E6E6E6"></path><path d="M150.538 56.5974C151.838 56.5974 152.892 55.5444 152.892 54.2455C152.892 52.9466 151.838 51.8936 150.538 51.8936C149.239 51.8936 148.185 52.9466 148.185 54.2455C148.185 55.5444 149.239 56.5974 150.538 56.5974Z" fill="#E6E6E6"></path><path d="M157.011 56.5974C158.311 56.5974 159.365 55.5444 159.365 54.2455C159.365 52.9466 158.311 51.8936 157.011 51.8936C155.711 51.8936 154.657 52.9466 154.657 54.2455C154.657 55.5444 155.711 56.5974 157.011 56.5974Z" fill="#E6E6E6"></path><path d="M142.098 212.696H42.2742C40.7016 212.696 39.4221 211.417 39.4221 209.846C39.4221 208.274 40.7016 206.996 42.2742 206.996H142.098C143.67 206.996 144.95 208.274 144.95 209.846C144.95 211.417 143.67 212.696 142.098 212.696Z" fill="#E6E6E6"></path><path d="M92.544 323.135C115.384 323.135 133.899 304.633 133.899 281.809C133.899 258.986 115.384 240.484 92.544 240.484C69.7041 240.484 51.1886 258.986 51.1886 281.809C51.1886 304.633 69.7041 323.135 92.544 323.135Z" fill="#CD9933"></path><path d="M99.1166 268.316C95.6264 268.459 91.6808 268.699 89.1011 271.375C86.8599 273.7 86.3688 277.15 88.6415 279.632C90.9202 282.121 94.463 282.458 97.0897 284.399C100.174 286.679 99.7221 291.189 96.7375 293.349C93.218 295.897 88.6738 294.709 85.4563 292.285C84.6317 291.664 83.8314 293.055 84.6465 293.669C87.5293 295.841 91.2909 297.05 94.8552 296.011C98.072 295.073 100.566 292.452 100.819 289.043C100.94 287.416 100.477 285.764 99.4648 284.48C98.3959 283.124 96.8565 282.289 95.3002 281.61C92.6211 280.441 88.0082 278.929 88.7872 275.124C89.7313 270.511 95.3497 270.074 99.1166 269.919C100.145 269.877 100.151 268.274 99.1166 268.316L99.1166 268.316Z" fill="white"></path><path d="M92.6419 266.134L92.488 301.327C92.4835 302.359 94.0878 302.36 94.0924 301.327L94.2462 266.134C94.2507 265.102 92.6464 265.101 92.6419 266.134Z" fill="white"></path><path d="M311.653 0H107.756C100.277 0 94.1946 6.0777 94.1946 13.5519V153.176C94.1946 160.65 100.277 166.728 107.756 166.728H311.653C319.132 166.728 325.215 160.65 325.215 153.176V13.5519C325.215 6.0777 319.132 0 311.653 0Z" fill="white"></path><path d="M208.767 83.0188C221.368 83.0188 231.584 72.8107 231.584 60.2184C231.584 47.6262 221.368 37.4181 208.767 37.4181C196.166 37.4181 185.95 47.6262 185.95 60.2184C185.95 72.8107 196.166 83.0188 208.767 83.0188Z" fill="#CD9933"></path><path d="M213.095 50.0438C210.271 50.1601 207.091 50.339 204.955 52.4394C203.185 54.1792 202.566 56.8876 204.193 58.9361C205.905 61.0928 208.752 61.5021 210.987 62.8804C212.377 63.737 213.297 65.0347 213.327 66.7025C213.355 68.2639 212.634 69.7226 211.428 70.7012C208.471 73.1022 204.437 72.1083 201.639 70.0085C201.089 69.5954 200.555 70.5228 201.099 70.9314C203.417 72.6704 206.4 73.6804 209.284 72.9322C211.938 72.2435 214.076 70.1569 214.364 67.3688C214.667 64.4303 212.736 62.4294 210.232 61.2815C207.944 60.2322 203.93 59.1143 204.308 55.8547C204.789 51.7103 209.867 51.2455 213.095 51.1125C213.781 51.0843 213.785 50.0154 213.095 50.0438V50.0438Z" fill="white"></path><path d="M208.187 48.1057L208.059 77.4313C208.056 78.1191 209.125 78.12 209.128 77.4313L209.257 48.1057C209.26 47.4179 208.19 47.417 208.187 48.1057Z" fill="white"></path><path d="M311.653 0H107.756C100.277 0 94.1946 6.0777 94.1946 13.5519V153.176C94.1946 160.65 100.277 166.728 107.756 166.728H311.653C319.132 166.728 325.215 160.65 325.215 153.176V13.5519C325.215 6.0777 319.132 0 311.653 0ZM323.789 153.176C323.789 159.866 318.348 165.303 311.653 165.303H107.756C101.061 165.303 95.6206 159.866 95.6206 153.176V13.5519C95.6206 6.86149 101.061 1.42502 107.756 1.42502H311.653C318.348 1.42502 323.789 6.86148 323.789 13.5519V153.176Z" fill="#3F3D56"></path><path d="M186.196 13.7871H166.189C165.183 13.7871 164.363 14.6065 164.363 15.6111C164.363 16.6229 165.183 17.4423 166.189 17.4423H186.196C187.201 17.4423 188.021 16.6229 188.021 15.6111C188.021 14.6065 187.201 13.7871 186.196 13.7871Z" fill="#E6E6E6"></path><path d="M219.708 13.7871H199.701C198.696 13.7871 197.875 14.6065 197.875 15.6111C197.875 16.6229 198.696 17.4423 199.701 17.4423H219.708C220.714 17.4423 221.534 16.6229 221.534 15.6111C221.534 14.6065 220.714 13.7871 219.708 13.7871Z" fill="#E6E6E6"></path><path d="M253.22 13.7871H233.213C232.208 13.7871 231.388 14.6065 231.388 15.6111C231.388 16.6229 232.208 17.4423 233.213 17.4423H253.22C254.226 17.4423 255.046 16.6229 255.046 15.6111C255.046 14.6065 254.226 13.7871 253.22 13.7871Z" fill="#E6E6E6"></path><path d="M286.219 95.844H133.19C126.823 95.844 121.646 101.017 121.646 107.38V117.796C121.646 124.159 126.823 129.332 133.19 129.332H286.219C292.587 129.332 297.763 124.159 297.763 117.796V107.38C297.763 101.017 292.587 95.844 286.219 95.844Z" fill="#CD9933"></path><path d="M52.1786 150.69L46.3104 147.913C48.7173 151.269 50.7912 156.511 51.9015 160.683C53.7814 156.797 56.8119 152.043 59.8116 149.203L53.6097 150.797C57.4313 132.081 71.8054 118.644 88.2658 118.644V117.219C71.0725 117.219 56.0806 131.218 52.1786 150.69Z" fill="#3F3D56"></path><path d="M79.1874 179.208H42.1102C40.5375 179.208 39.2581 177.929 39.2581 176.358C39.2581 174.786 40.5375 173.508 42.1102 173.508H79.1874C80.7601 173.508 82.0395 174.786 82.0395 176.358C82.0395 177.929 80.7601 179.208 79.1874 179.208Z" fill="#E6E6E6"></path><path d="M325.837 169.925L325.463 199.024L318.218 224.963L312.426 222.804L314.997 199.028L314.659 166.853L325.837 169.925Z" fill="#FFB6B6"></path><path d="M318.193 229.146C318.873 225.416 317.627 222.065 315.411 221.662C313.194 221.259 310.847 223.955 310.167 227.685C309.488 231.415 310.733 234.766 312.95 235.169C315.166 235.572 317.513 232.875 318.193 229.146Z" fill="#FFB6B6"></path><path d="M317.045 135.278C317.045 135.278 329.457 135.449 329.446 142.038C329.44 145.757 328.641 179.532 326.416 200.05C324.7 215.873 321.425 220 321.425 220L313.582 202.188L317.045 135.278Z" fill="#E6E6E6"></path><path d="M316.726 194.728H274.809C278.322 186.894 280.482 179.433 277.106 173.498L316.726 171.203C314.746 179.215 314.504 187.077 316.726 194.728Z" fill="#FFB6B6"></path><path d="M311.558 125.299L294.906 124.152L288.016 132.759L284.522 133.393C279.286 134.345 275.557 139.014 275.791 144.327L277.15 175.188L316.952 178.088L326.487 137.901L315.003 133.333L311.558 125.299V125.299Z" fill="#E6E6E6"></path><path d="M210.008 134.609C211.189 135.671 212.032 136.912 212.478 138.115L224.372 147.522L219.727 153.047L208.162 142.909C206.917 142.593 205.594 141.886 204.412 140.824C201.713 138.398 200.778 135.04 202.323 133.323C203.868 131.607 207.309 132.183 210.008 134.609L210.008 134.609Z" fill="#FFB6B6"></path><path d="M294.099 142.528V142.528L248.525 173.28L215.857 150.562L220.762 141.684L246.473 156.616L270.185 138.423C278.629 130.497 289.211 132.034 294.099 142.528H294.099Z" fill="#E6E6E6"></path><path d="M302.244 121.575C309.067 121.575 314.598 116.048 314.598 109.23C314.598 102.412 309.067 96.8846 302.244 96.8846C295.422 96.8846 289.891 102.412 289.891 109.23C289.891 116.048 295.422 121.575 302.244 121.575Z" fill="#FFB6B6"></path><path d="M319.036 106.197V108.591L305.104 104.672L294.658 106.859C294.537 105.27 294.066 103.71 293.282 102.328C293.828 104.545 293.889 106.26 293.31 107.144L291.906 107.436C291.677 106.817 291.235 106.275 290.658 105.947C290.601 105.912 290.53 105.883 290.465 105.905C290.366 105.94 290.358 106.068 290.358 106.168C290.373 106.695 290.387 107.223 290.408 107.75L286.373 108.591V106.197C282.501 97.4914 292.706 89.9584 302.708 89.8803C307.221 89.845 311.3 91.7043 314.259 94.654C317.211 97.611 319.036 101.687 319.036 106.197Z" fill="#2F2E41"></path><path d="M326.874 134.268L325.822 134.181C325.897 133.838 325.972 133.498 326.04 133.154C326.623 130.269 325.34 126.596 325.245 123.824C324.75 126.753 325.597 130.356 324.721 133.137C324.623 133.446 320.816 135.44 320.712 135.745C316.498 134.205 312.111 129.285 307.142 132.159C304.203 133.858 300.851 133.113 297.514 132.335C296.688 132.142 296.573 128.067 295.756 127.907C294.292 127.62 292.143 131.325 290.765 131.47L296.469 109.382C296.469 97.3659 295.355 84.7591 310.587 89.0079C314.418 90.0765 318.209 90.9141 321.037 94.0736C323.864 97.2375 325.877 101.659 326.591 106.694C327.021 109.732 329.705 120.046 326.874 134.268Z" fill="#2F2E41"></path><path d="M317.038 356.384L310.238 356.545L306.448 326.018L316.483 325.78L317.038 356.384Z" fill="#FFB7B7"></path><path d="M293.709 370.56C293.709 371.708 294.524 372.639 295.53 372.639H309.027C309.027 372.639 310.355 367.304 315.77 365.008L316.144 372.639H323.107L322.263 360.368C322.263 360.368 324.126 353.803 320.257 350.447C316.389 347.092 319.522 347.559 319.522 347.559L318.001 339.964L307.479 341.2L307.402 353.122L302.296 364.956L294.807 368.653C294.14 368.982 293.709 369.732 293.709 370.56H293.709H293.709Z" fill="#2F2E41"></path><path d="M296.35 351.409L289.814 353.289L278.396 324.722L288.042 321.948L296.35 351.409Z" fill="#FFB7B7"></path><path d="M277.385 371.037C277.676 372.148 278.701 372.841 279.674 372.586L292.729 369.164C292.729 369.164 292.659 363.666 297.314 360.072L299.613 367.359L306.348 365.593L302.416 353.938C302.416 353.938 302.551 347.116 297.957 344.851C293.363 342.586 296.512 342.243 296.512 342.243L293.112 335.283L283.249 339.147L286.201 350.698L284.268 363.439L277.963 368.914C277.401 369.401 277.174 370.236 277.385 371.037L277.385 371.037L277.385 371.037Z" fill="#2F2E41"></path><path d="M312.869 192.925L317.147 194.35C323.836 206.695 326.672 223.088 326.296 242.856L318.696 331.643H306.264L297.165 232.731L281.122 269.857L292.86 331.643L281.122 332.839L257.48 268.591L273.945 193.919L312.869 192.925Z" fill="#2F2E41"></path></g><defs><clipPath id="clip0_2127_9345"><rect width="389" height="373" fill="white"></rect></clipPath></defs></svg>