<svg xmlns="http://www.w3.org/2000/svg" width="810" height="658" viewBox="0 0 810 658" fill="none"><g clip-path="url(#clip0_2131_9293)"><path d="M692.51 601.237V650.277C692.508 652.133 691.77 653.912 690.458 655.225C689.145 656.537 687.366 657.275 685.51 657.277H129.51C127.655 657.273 125.877 656.534 124.565 655.222C123.253 653.911 122.514 652.132 122.51 650.277V588.157C123.17 587.457 123.83 586.767 124.51 586.077C161.443 547.793 205.909 517.579 255.103 497.34C304.297 477.101 357.152 467.277 410.333 468.487C463.514 469.697 515.867 481.915 564.089 504.371C612.312 526.827 655.357 559.033 690.51 598.957C691.19 599.707 691.85 600.477 692.51 601.237Z" fill="#0B0E09"></path><path d="M509.01 63.2669C508.45 62.9269 507.89 62.5969 507.33 62.2769H448.89C448.47 62.9369 448.07 63.6069 447.68 64.2769H510.69C510.13 63.9369 509.57 63.6069 509.01 63.2669ZM122.51 260.737V275.637C122.76 275.657 123.02 275.657 123.27 275.667L122.77 304.307L122.51 304.167V306.987L122.72 307.097L122.51 319.107V360.507H124.51V253.987C123.95 256.147 123.284 258.397 122.51 260.737V260.737ZM509.01 63.2669C508.45 62.9269 507.89 62.5969 507.33 62.2769H448.89C448.47 62.9369 448.07 63.6069 447.68 64.2769H510.69C510.13 63.9369 509.57 63.6069 509.01 63.2669ZM685.51 62.2769H129.51C127.654 62.2789 125.875 63.0171 124.563 64.3294C123.25 65.6417 122.512 67.421 122.51 69.2769V650.277C122.514 652.132 123.253 653.91 124.565 655.222C125.877 656.534 127.655 657.273 129.51 657.277H685.51C687.366 657.275 689.145 656.537 690.458 655.224C691.77 653.912 692.508 652.133 692.51 650.277V69.2769C692.508 67.421 691.77 65.6417 690.458 64.3294C689.145 63.017 687.366 62.2789 685.51 62.2769V62.2769ZM690.51 650.277C690.51 651.603 689.983 652.874 689.045 653.812C688.108 654.75 686.836 655.276 685.51 655.277H129.51C128.184 655.276 126.913 654.749 125.975 653.812C125.038 652.874 124.511 651.603 124.51 650.277V69.2769C124.512 67.9515 125.04 66.681 125.977 65.7438C126.914 64.8066 128.185 64.2791 129.51 64.2769H685.51C686.836 64.2791 688.106 64.8066 689.043 65.7438C689.981 66.681 690.508 67.9515 690.51 69.2769V650.277Z" fill="#3F3D56"></path><path d="M353.039 578.694L333.207 579.242C330.194 579.396 327.214 578.561 324.721 576.863C322.567 575.261 321.579 573.095 322.013 570.92L325.915 551.307C326.651 547.607 331.185 544.81 336.695 544.658L347.648 544.356C353.158 544.203 357.839 546.746 358.778 550.4L363.757 569.768C364.31 571.915 363.443 574.132 361.381 575.85C358.985 577.684 356.055 578.682 353.039 578.694Z" fill="#3F3D56"></path><path d="M473.669 578.133L453.837 578.681C450.825 578.836 447.844 578 445.351 576.302C443.198 574.7 442.21 572.535 442.643 570.36L446.545 550.747C447.281 547.047 451.815 544.25 457.325 544.097L468.278 543.795C473.788 543.643 478.47 546.186 479.408 549.839L484.387 569.207C484.94 571.355 484.073 573.572 482.011 575.29C479.615 577.123 476.686 578.122 473.669 578.133Z" fill="#3F3D56"></path><path d="M284.174 411.629C283.268 411.239 282.522 410.551 282.06 409.679C281.598 408.807 281.448 407.804 281.634 406.835C281.82 405.866 282.331 404.99 283.083 404.351C283.835 403.712 284.782 403.349 285.769 403.322L511.236 397.096C511.805 397.08 512.371 397.176 512.902 397.379C513.433 397.582 513.919 397.888 514.332 398.279C514.745 398.669 515.078 399.138 515.31 399.657C515.542 400.176 515.669 400.736 515.685 401.304V401.304C515.716 402.452 515.289 403.565 514.5 404.399C513.711 405.233 512.624 405.72 511.476 405.753L511.476 405.753L286.008 411.978C285.378 411.997 284.752 411.878 284.174 411.629Z" fill="#3F3D56"></path><path d="M367.383 336.988L302.934 338.768L308.943 556.366L373.392 554.586L367.383 336.988Z" fill="#E6E6E6"></path><path d="M369.018 333.079L356.629 366.828L356.64 520.587L371.736 524.916L369.018 333.079Z" fill="#CCCCCC"></path><path d="M334.823 280.122C322.765 280.464 313.566 301.331 313.787 309.474L314.194 324.215L357.853 323.01L357.446 308.268C357.217 300.126 346.88 279.799 334.823 280.122Z" fill="#3F3D56"></path><path d="M303.77 428.881C301.517 428.94 299.333 428.104 297.696 426.555C296.059 425.006 295.103 422.871 295.039 420.619L294.376 396.628C294.314 394.374 295.149 392.188 296.699 390.551C298.248 388.913 300.385 387.959 302.638 387.896C304.892 387.834 307.078 388.67 308.715 390.219C310.352 391.769 311.307 393.905 311.37 396.158L312.032 420.149C312.092 422.402 311.255 424.586 309.706 426.223C308.157 427.86 306.023 428.816 303.77 428.881Z" fill="#3F3D56"></path><path d="M320.125 339.284L319.82 323.429L323.978 323.326L324.283 339.13L328.052 569.476L323.893 569.591" fill="#3F3D56"></path><path d="M374.773 376.361L300.035 378.425C292.896 369.72 292.248 332.632 307.146 325.574L312.988 315.653L358.03 313.455L363.295 323.9C370.705 330.206 374.526 367.061 374.773 376.361Z" fill="#E6E6E6"></path><path d="M346.643 358.573L327.743 359.095C324.096 359.196 320.995 354.464 320.831 348.549C320.668 342.634 323.503 337.738 327.15 337.637L346.05 337.115C349.697 337.015 352.798 341.746 352.962 347.662C353.125 353.577 350.29 358.473 346.643 358.573Z" fill="#0B0E09"></path><path d="M310.043 465.568L271.084 493.088L264.278 555.138L309.726 539.953L310.043 465.568Z" fill="#E6E6E6"></path><path d="M491.794 334.323L427.344 336.103L433.353 553.7L497.802 551.921L491.794 334.323Z" fill="#E6E6E6"></path><path d="M428.888 333.806L442.149 367.222L446.128 520.93L431.149 525.649L428.888 333.806Z" fill="#CCCCCC"></path><path d="M524.024 273.911C528.689 273.911 532.471 268.84 532.471 262.584C532.471 256.328 528.689 251.256 524.024 251.256C519.359 251.256 515.577 256.328 515.577 262.584C515.577 268.84 519.359 273.911 524.024 273.911Z" fill="#E6E6E6"></path><path d="M568.183 440.211C572.849 440.211 576.631 435.14 576.631 428.884C576.631 422.628 572.849 417.556 568.183 417.556C563.518 417.556 559.736 422.628 559.736 428.884C559.736 435.14 563.518 440.211 568.183 440.211Z" fill="#E6E6E6"></path><path d="M239.471 408.422C244.137 408.422 247.919 403.35 247.919 397.094C247.919 390.838 244.137 385.767 239.471 385.767C234.806 385.767 231.024 390.838 231.024 397.094C231.024 403.35 234.806 408.422 239.471 408.422Z" fill="#E6E6E6"></path><path d="M457.975 277.492C445.918 277.834 436.718 298.701 436.939 306.843L437.346 321.585L481.005 320.379L480.598 305.638C480.37 297.495 470.033 277.168 457.975 277.492Z" fill="#3F3D56"></path><path d="M470.459 344.247L470.154 328.392L474.312 328.288L474.617 344.093L478.386 574.439L474.227 574.554" fill="#3F3D56"></path><path d="M497.926 373.731L423.187 375.794C421.884 367.918 423.57 331.161 430.298 322.943L436.14 313.023L481.183 310.824L486.447 321.269C499.746 322.353 504.397 358.472 497.926 373.731Z" fill="#E6E6E6"></path><path d="M469.887 359.254L450.987 359.776C447.34 359.877 444.218 354.402 444.03 347.574C443.841 340.746 446.656 335.108 450.303 335.007L469.203 334.485C472.85 334.385 475.971 339.859 476.16 346.687C476.348 353.515 473.534 359.153 469.887 359.254Z" fill="#0B0E09"></path><path d="M494.978 449.662L532.641 478.93L536.607 541.227L491.901 523.983L494.978 449.662Z" fill="#E6E6E6"></path><path d="M484.46 161.121C444.047 161.121 397.603 116.275 356.511 137.582C232.096 202.096 249.223 94.1422 213.479 53.9933L214.653 51.6396C241.712 154.858 266.196 319.332 357.051 134.844C379.811 88.6306 454.507 160.064 498.475 157.957L498.551 160.786C493.908 161.01 489.211 161.122 484.46 161.121Z" fill="#F2F2F2"></path><path d="M581.457 167.467C549.242 191.867 485.141 184.158 465.249 225.954C405.021 352.499 353.495 256.102 300.761 245.677L300.276 243.093C353.066 247.471 409.69 240.678 464.027 223.445C513.131 207.874 556.941 184.71 590.719 156.483L592.488 158.693C588.922 161.675 585.245 164.599 581.457 167.467Z" fill="#F2F2F2"></path><path d="M231.024 161.911C235.689 161.911 239.471 156.84 239.471 150.584C239.471 144.328 235.689 139.256 231.024 139.256C226.359 139.256 222.577 144.328 222.577 150.584C222.577 156.84 226.359 161.911 231.024 161.911Z" fill="#E6E6E6"></path><path d="M493.024 69.9113C497.689 69.9113 501.471 64.8398 501.471 58.5838C501.471 52.3278 497.689 47.2563 493.024 47.2563C488.359 47.2563 484.577 52.3278 484.577 58.5838C484.577 64.8398 488.359 69.9113 493.024 69.9113Z" fill="#E6E6E6"></path><path d="M222.577 307.335C227.242 307.335 231.024 302.263 231.024 296.007C231.024 289.751 227.242 284.68 222.577 284.68C217.911 284.68 214.129 289.751 214.129 296.007C214.129 302.263 217.911 307.335 222.577 307.335Z" fill="#E6E6E6"></path><path d="M308.362 207.629C304.5 210.202 300.548 204.078 304.484 201.619C308.346 199.046 312.299 205.17 308.362 207.629Z" fill="#E6E6E6"></path><path d="M451.362 6.62918C447.5 9.20237 443.548 3.07794 447.484 0.619009C451.346 -1.95405 455.299 4.17039 451.362 6.62918Z" fill="#E6E6E6"></path><path d="M535.641 125.801L533.184 125.262L533.722 122.804L532.084 122.445L531.545 124.903L529.088 124.365L528.729 126.003L531.186 126.542L530.648 128.999L532.286 129.358L532.825 126.9L535.282 127.439L535.641 125.801Z" fill="#E6E6E6"></path><path d="M310.427 43.4393C316.338 43.4393 321.129 38.6477 321.129 32.737C321.129 26.8263 316.338 22.0347 310.427 22.0347C304.516 22.0347 299.725 26.8263 299.725 32.737C299.725 38.6477 304.516 43.4393 310.427 43.4393Z" fill="#FFAC4A"></path><path d="M388.708 19.1903C376.65 19.5328 367.451 40.3995 367.672 48.5422L368.079 63.2838L411.738 62.0783L411.331 47.3367C411.103 39.1941 400.766 18.8669 388.708 19.1903Z" fill="#3F3D56"></path><path d="M414.705 577.409L394.872 577.957C391.86 578.112 388.88 577.276 386.387 575.578C384.233 573.976 383.245 571.81 383.678 569.635L387.581 550.023C388.316 546.323 392.85 543.525 398.361 543.373L409.313 543.071C414.824 542.919 419.505 545.461 420.444 549.115L425.423 568.483C425.975 570.63 425.108 572.847 423.046 574.566C420.651 576.399 417.721 577.398 414.705 577.409Z" fill="#3F3D56"></path><path d="M423.548 113.036L359.099 114.816L371.245 554.664L435.694 552.884L423.548 113.036Z" fill="#E6E6E6"></path><path d="M397.76 325.949L397.455 310.094L401.613 309.991L401.918 325.795L405.687 556.141L401.528 556.256" fill="#3F3D56"></path><path d="M436.237 153.292L348.911 155.703C347.389 146.5 349.358 103.553 357.22 93.9507L359.374 82.4887L419.671 80.8237L422.825 91.9948C431.484 99.3627 435.949 142.426 436.237 153.292Z" fill="#E6E6E6"></path><path d="M421.577 82.1764L359.354 83.8946C357.057 83.9579 355.161 82.7521 355.118 81.2012C355.113 80.9778 355.145 80.7551 355.215 80.5427L364.88 50.7675C365.294 49.4925 366.941 48.5562 368.864 48.5031L410.129 47.3637C412.051 47.3106 413.748 48.1546 414.232 49.4048L425.525 78.6013C426.103 80.0946 424.769 81.6485 422.545 82.0721C422.226 82.1327 421.902 82.1676 421.577 82.1764Z" fill="#E6E6E6"></path><path d="M365.492 323.927C364.93 323.686 364.4 323.379 363.911 323.012C363.211 322.521 362.633 321.876 362.221 321.127C361.808 320.378 361.573 319.544 361.532 318.69L359.271 236.813C359.178 233.423 362.497 230.572 366.669 230.457L422.372 228.918C426.545 228.802 430.015 231.467 430.109 234.856L432.37 316.734C432.377 317.589 432.187 318.435 431.817 319.205C431.447 319.976 430.905 320.651 430.233 321.18C428.745 322.392 426.891 323.065 424.972 323.09L369.269 324.628C367.974 324.671 366.685 324.432 365.492 323.927Z" fill="#3F3D56"></path><path d="M401.145 76.907L382.245 77.4289C378.597 77.5296 375.513 73.409 375.371 68.2447C375.228 63.0803 378.08 58.7958 381.727 58.6951L400.627 58.1732C404.274 58.0725 407.358 62.1931 407.501 67.3574C407.644 72.5217 404.792 76.8063 401.145 76.907Z" fill="#0B0E09"></path><path d="M493.39 423.566C491.137 423.626 488.953 422.789 487.316 421.24C485.679 419.691 484.723 417.556 484.659 415.304L483.996 391.313C483.935 389.06 484.772 386.876 486.321 385.24C487.87 383.603 490.006 382.649 492.258 382.587C494.511 382.525 496.696 383.36 498.333 384.908C499.97 386.456 500.926 388.591 500.99 390.844L501.652 414.835C501.712 417.087 500.875 419.272 499.326 420.909C497.777 422.545 495.643 423.501 493.39 423.566Z" fill="#3F3D56"></path><path d="M182.95 491.595C172.704 491.595 166.043 489.049 163.095 483.987C157.281 474.007 167.018 456.494 192.036 431.937L194.137 434.077C170.899 456.89 160.795 474.078 165.687 482.478C168.782 487.79 177.995 489.694 192.335 487.982C206.571 486.282 225.436 481.217 248.407 472.927C295.698 455.86 355.03 427.07 415.472 391.862C475.912 356.655 530.222 319.246 568.399 286.527C575.731 280.242 582.386 274.195 588.178 268.556C595.781 261.335 602.795 253.517 609.154 245.179C617.717 233.552 620.607 224.598 617.512 219.284C612.342 210.41 590.624 211.244 556.355 221.637L555.485 218.766C592.251 207.617 613.992 207.283 620.104 217.774C623.901 224.293 621.03 234.112 611.57 246.958C605.114 255.429 597.992 263.37 590.271 270.706C584.434 276.389 577.732 282.478 570.351 288.805C532.041 321.639 477.574 359.159 416.982 394.454C356.388 429.751 296.882 458.622 249.426 475.749C226.241 484.116 207.152 489.234 192.691 490.96C189.459 491.363 186.207 491.575 182.95 491.595Z" fill="#3F3D56"></path><path d="M423.268 139.256L460.93 168.524L464.896 230.821L420.19 213.577L423.268 139.256Z" fill="#E6E6E6"></path><path d="M366.372 139.256L328.71 168.524L324.744 230.821L369.45 213.577L366.372 139.256Z" fill="#E6E6E6"></path><path d="M387.625 93.8252L387.32 77.9702L391.478 77.8672L391.783 93.6722L395.552 124.018L391.393 124.133" fill="#3F3D56"></path><path d="M197.893 219.591C201.785 218.085 204.091 214.669 203.043 211.961C201.994 209.254 197.99 208.28 194.098 209.787C190.206 211.293 187.9 214.709 188.948 217.417C189.996 220.124 194.001 221.098 197.893 219.591Z" fill="#E6E6E6"></path><path d="M246.897 213.305C250.789 211.799 253.094 208.382 252.046 205.675C250.998 202.968 246.993 201.994 243.101 203.501C239.209 205.007 236.904 208.423 237.952 211.131C239 213.838 243.005 214.812 246.897 213.305Z" fill="#E6E6E6"></path><path d="M193.643 261.399C197.535 259.893 199.841 256.477 198.793 253.769C197.745 251.062 193.74 250.088 189.848 251.595C185.956 253.101 183.65 256.518 184.698 259.225C185.747 261.933 189.751 262.906 193.643 261.399Z" fill="#E6E6E6"></path><path d="M179.467 279.841C181.252 279.419 182.207 276.995 181.6 274.429C180.992 271.862 179.052 270.124 177.267 270.546C175.481 270.969 174.526 273.392 175.134 275.959C175.741 278.526 177.681 280.264 179.467 279.841Z" fill="#E6E6E6"></path><path d="M179.175 311.064C180.961 310.641 181.916 308.218 181.308 305.651C180.701 303.084 178.761 301.346 176.975 301.769C175.19 302.192 174.235 304.615 174.842 307.182C175.45 309.748 177.39 311.486 179.175 311.064Z" fill="#E6E6E6"></path><path d="M222.184 246.394C223.97 245.972 224.925 243.548 224.317 240.982C223.71 238.415 221.77 236.677 219.984 237.1C218.199 237.522 217.244 239.945 217.851 242.512C218.459 245.079 220.399 246.817 222.184 246.394Z" fill="#E6E6E6"></path><path d="M196.375 240.127C198.161 239.705 199.116 237.281 198.508 234.715C197.901 232.148 195.961 230.41 194.175 230.832C192.39 231.255 191.435 233.678 192.042 236.245C192.65 238.812 194.59 240.55 196.375 240.127Z" fill="#E6E6E6"></path><path d="M223.731 211.376C225.516 210.954 226.471 208.53 225.864 205.964C225.256 203.397 223.316 201.659 221.531 202.081C219.745 202.504 218.79 204.927 219.398 207.494C220.005 210.061 221.945 211.799 223.731 211.376Z" fill="#E6E6E6"></path><path d="M626.361 360.644C630.393 359.57 633.057 356.425 632.31 353.619C631.563 350.814 627.688 349.41 623.655 350.484C619.622 351.558 616.958 354.703 617.706 357.508C618.453 360.314 622.328 361.718 626.361 360.644Z" fill="#E6E6E6"></path><path d="M576.964 361.559C580.997 360.485 583.661 357.34 582.913 354.534C582.166 351.729 578.291 350.325 574.258 351.399C570.226 352.473 567.562 355.618 568.309 358.424C569.056 361.229 572.931 362.633 576.964 361.559Z" fill="#E6E6E6"></path><path d="M635.136 319.546C639.169 318.472 641.832 315.327 641.085 312.522C640.338 309.716 636.463 308.313 632.43 309.387C628.397 310.461 625.734 313.606 626.481 316.411C627.228 319.217 631.103 320.62 635.136 319.546Z" fill="#E6E6E6"></path><path d="M649.705 302.077C651.526 301.851 652.739 299.546 652.414 296.928C652.09 294.311 650.35 292.372 648.53 292.598C646.709 292.823 645.496 295.128 645.82 297.746C646.145 300.363 647.884 302.302 649.705 302.077Z" fill="#E6E6E6"></path><path d="M653.393 271.071C655.214 270.845 656.427 268.54 656.102 265.923C655.778 263.305 654.039 261.366 652.218 261.592C650.397 261.818 649.184 264.123 649.508 266.741C649.833 269.358 651.572 271.297 653.393 271.071Z" fill="#E6E6E6"></path><path d="M603.601 330.675C605.422 330.449 606.635 328.144 606.31 325.527C605.986 322.909 604.246 320.97 602.425 321.196C600.605 321.422 599.392 323.727 599.716 326.344C600.041 328.962 601.78 330.901 603.601 330.675Z" fill="#E6E6E6"></path><path d="M628.574 339.714C630.395 339.489 631.608 337.184 631.284 334.566C630.959 331.948 629.22 330.009 627.399 330.235C625.578 330.461 624.365 332.766 624.689 335.384C625.014 338.001 626.753 339.94 628.574 339.714Z" fill="#E6E6E6"></path><path d="M598.252 365.317C600.073 365.091 601.286 362.786 600.961 360.169C600.637 357.551 598.897 355.612 597.077 355.838C595.256 356.064 594.043 358.369 594.367 360.986C594.692 363.604 596.431 365.543 598.252 365.317Z" fill="#E6E6E6"></path><path d="M718.651 523.237C705.739 523.237 691.587 522.749 676.194 521.773C596.581 516.718 493.457 499.141 385.818 472.281C278.181 445.422 178.888 412.487 106.233 379.547C70.8404 363.5 43.6768 348.311 25.4976 334.399C6.25058 319.672 -2.16836 306.835 0.473721 296.247C5.62172 275.618 51.2047 271.105 88.5377 270.951L88.5504 273.951C37.2824 274.162 7.03676 282.338 3.3849 296.973C-1.26695 315.613 36.6715 344.714 107.472 376.814C179.967 409.683 279.077 442.554 386.545 469.371C494.012 496.187 596.946 513.734 676.385 518.779C753.963 523.707 801.128 515.842 805.779 497.201C809.641 481.725 784.181 458.926 734.09 433.003L735.469 430.339C771.866 449.175 814.114 476.19 808.691 497.928C806.048 508.517 792.585 515.893 768.675 519.851C755.046 522.106 738.305 523.237 718.651 523.237Z" fill="#0B0E09"></path></g><defs><clipPath id="clip0_2131_9293"><rect width="809.164" height="657.277" fill="white"></rect></clipPath></defs></svg>