<svg xmlns="http://www.w3.org/2000/svg" width="679" height="441" viewBox="0 0 679 441" fill="none"><g clip-path="url(#clip0_2127_9431)"><path d="M662.88 269.334H639.006C638.496 269.335 637.992 269.221 637.532 269C637.073 268.779 636.669 268.456 636.352 268.057C636.039 267.668 635.818 267.213 635.706 266.726C635.594 266.24 635.593 265.734 635.705 265.247C637.947 255.356 637.839 245.078 635.389 235.237C635.2 234.484 635.278 233.689 635.609 232.987C635.941 232.285 636.506 231.72 637.208 231.388C647.18 226.723 656.338 226.845 664.425 231.748C664.849 232.002 665.213 232.344 665.491 232.753C665.768 233.161 665.954 233.625 666.034 234.112C667.748 244.812 667.814 255.711 666.229 266.43C666.116 267.237 665.715 267.976 665.099 268.51C664.484 269.044 663.695 269.337 662.88 269.334Z" fill="#FFAC4A"></path><path d="M662.518 253.704H644.263C643.809 253.703 643.375 253.522 643.054 253.202C642.734 252.881 642.554 252.446 642.554 251.993C642.554 251.54 642.734 251.105 643.054 250.784C643.375 250.463 643.809 250.282 644.263 250.281H662.518C662.971 250.282 663.406 250.463 663.726 250.784C664.047 251.105 664.227 251.54 664.227 251.993C664.227 252.446 664.047 252.881 663.726 253.202C663.406 253.522 662.971 253.703 662.518 253.704Z" fill="white"></path><path d="M662.518 247.703H644.263C643.809 247.702 643.375 247.521 643.054 247.2C642.734 246.879 642.554 246.445 642.554 245.991C642.554 245.538 642.734 245.103 643.054 244.783C643.375 244.462 643.809 244.281 644.263 244.28H662.518C662.971 244.281 663.406 244.462 663.726 244.783C664.047 245.103 664.227 245.538 664.227 245.991C664.227 246.445 664.047 246.879 663.726 247.2C663.406 247.521 662.971 247.702 662.518 247.703Z" fill="white"></path><path d="M184.779 266.943C254.844 266.943 311.644 210.181 311.644 140.163C311.644 70.1441 254.844 13.3828 184.779 13.3828C114.713 13.3828 57.9137 70.1441 57.9137 140.163C57.9137 210.181 114.713 266.943 184.779 266.943Z" fill="#F2F2F2"></path><path d="M331.912 263.192C345.179 263.192 355.934 252.444 355.934 239.186C355.934 225.928 345.179 215.18 331.912 215.18C318.645 215.18 307.891 225.928 307.891 239.186C307.891 252.444 318.645 263.192 331.912 263.192Z" fill="#F2F2F2"></path><path d="M452.772 317.205C458.162 317.205 462.531 312.838 462.531 307.452C462.531 302.066 458.162 297.7 452.772 297.7C447.382 297.7 443.013 302.066 443.013 307.452C443.013 312.838 447.382 317.205 452.772 317.205Z" fill="#F2F2F2"></path><path d="M528.121 345.809C524.005 314.383 504.302 283.519 474.221 273.476C486.266 305.772 486.49 341.286 474.856 373.732C470.324 386.229 463.98 399.657 468.399 412.195C471.149 419.996 477.791 425.935 485.196 429.629C492.602 433.322 500.805 435.052 508.906 436.747L510.507 438.053C523.163 408.992 532.236 377.236 528.121 345.809Z" fill="#F2F2F2"></path><path d="M473.927 274.072C491.532 293.532 502.553 318.041 505.426 344.118C506.007 349.708 506.11 355.43 504.922 360.951C503.722 366.324 501.105 371.278 497.341 375.298C493.907 379.117 489.953 382.626 487.508 387.213C484.93 392.047 484.865 397.522 486.684 402.628C488.908 408.876 493.246 413.952 497.662 418.768C502.564 424.116 507.74 429.593 509.855 436.711C510.111 437.574 511.435 437.126 511.179 436.265C507.5 423.881 495.403 416.91 489.584 405.772C486.868 400.575 485.704 394.529 488.183 389.008C490.351 384.181 494.426 380.559 497.936 376.722C501.622 372.694 504.439 368.281 505.871 362.969C507.336 357.536 507.457 351.798 507.021 346.218C505.938 333.57 502.873 321.172 497.936 309.476C492.376 296.097 484.566 283.766 474.845 273.018C474.243 272.354 473.329 273.411 473.927 274.072H473.927Z" fill="white"></path><path d="M504.995 335.667C509.308 334.591 513.098 332.019 515.687 328.409C518.277 324.799 519.499 320.387 519.133 315.96C519.057 315.064 517.66 315.142 517.738 316.038C518.085 320.16 516.947 324.27 514.529 327.627C512.11 330.983 508.57 333.366 504.549 334.343C503.675 334.557 504.127 335.879 504.995 335.667Z" fill="white"></path><path d="M499.337 373.591C491.506 368.986 485.7 361.601 483.076 352.908C482.817 352.046 481.492 352.494 481.751 353.354C484.499 362.395 490.557 370.069 498.717 374.843C499.495 375.297 500.111 374.043 499.337 373.591Z" fill="white"></path><path d="M491.087 297.428C489.505 298.192 487.758 298.551 486.003 298.473C484.248 298.395 482.54 297.883 481.032 296.983C480.26 296.519 479.645 297.773 480.412 298.234C482.082 299.222 483.97 299.785 485.908 299.875C487.847 299.965 489.779 299.58 491.534 298.752C491.706 298.688 491.847 298.561 491.929 298.396C492.01 298.232 492.026 298.043 491.973 297.867C491.913 297.692 491.786 297.548 491.62 297.466C491.454 297.383 491.263 297.37 491.087 297.428V297.428Z" fill="white"></path><path d="M383.09 330.237C383.563 330.541 384.037 330.844 384.511 331.16C390.859 335.273 396.862 339.895 402.461 344.98C402.9 345.366 403.34 345.764 403.767 346.163C417.125 358.557 428.064 373.322 436.029 389.708C439.192 396.231 441.854 402.985 443.992 409.912C446.944 419.478 449.383 430.085 455.155 437.888C455.748 438.709 456.391 439.492 457.081 440.234L508.789 439.903C508.906 439.843 509.023 439.795 509.141 439.736L511.206 439.817C511.121 439.452 511.025 439.075 510.939 438.71C510.891 438.498 510.831 438.286 510.782 438.075C510.746 437.933 510.709 437.792 510.685 437.662C510.673 437.615 510.661 437.568 510.649 437.533C510.625 437.404 510.588 437.286 510.564 437.168C510.031 435.061 509.483 432.954 508.919 430.848C508.919 430.836 508.919 430.836 508.907 430.824C504.569 414.782 498.852 398.962 490.914 384.511C490.675 384.076 490.437 383.63 490.174 383.195C486.56 376.702 482.421 370.514 477.798 364.694C475.256 361.515 472.555 358.467 469.705 355.562C462.326 348.068 453.814 341.78 444.48 336.93C425.872 327.264 404.378 323.652 384.596 329.756C384.09 329.912 383.595 330.069 383.09 330.237Z" fill="#F2F2F2"></path><path d="M383.21 330.892C408.991 335.838 432.557 348.776 450.561 367.868C454.393 371.982 457.922 376.488 460.3 381.612C462.58 386.623 463.474 392.154 462.891 397.628C462.451 402.743 461.407 407.925 462.218 413.058C463.073 418.468 466.319 422.879 470.847 425.862C476.387 429.512 482.909 430.954 489.337 432.144C496.473 433.464 503.906 434.723 509.883 439.134C510.607 439.668 511.394 438.514 510.671 437.98C500.272 430.306 486.414 432.019 475.057 426.627C469.758 424.111 465.185 419.984 463.839 414.085C462.661 408.926 463.733 403.582 464.224 398.407C464.74 392.973 464.331 387.755 462.274 382.652C460.17 377.432 456.81 372.778 453.1 368.585C444.616 359.138 434.698 351.083 423.71 344.715C411.209 337.378 397.545 332.231 383.308 329.499C382.427 329.33 382.335 330.725 383.21 330.892Z" fill="white"></path><path d="M445.126 361.379C447.921 357.926 449.397 353.592 449.29 349.151C449.183 344.711 447.5 340.453 444.541 337.138C443.94 336.469 442.872 337.371 443.474 338.04C446.235 341.122 447.802 345.089 447.893 349.224C447.985 353.359 446.594 357.391 443.972 360.591C443.403 361.287 444.56 362.071 445.126 361.379Z" fill="white"></path><path d="M463.457 395.064C454.43 396.099 445.344 393.696 438.012 388.333C437.286 387.801 436.498 388.956 437.223 389.487C444.864 395.053 454.324 397.534 463.715 396.437C464.61 396.332 464.347 394.959 463.457 395.064Z" fill="white"></path><path d="M410.983 339.216C410.18 340.777 409.002 342.115 407.553 343.109C406.105 344.103 404.433 344.722 402.686 344.91C401.79 345.004 402.055 346.376 402.945 346.283C404.873 346.066 406.72 345.38 408.322 344.286C409.925 343.191 411.234 341.721 412.137 340.004C412.236 339.849 412.272 339.663 412.238 339.483C412.204 339.302 412.103 339.142 411.954 339.033C411.801 338.93 411.613 338.891 411.431 338.925C411.249 338.959 411.088 339.064 410.983 339.216H410.983Z" fill="white"></path><path d="M631.091 222.99L624.098 155.351L622.253 127.513L641.825 123.976C641.825 123.976 644.755 143.114 647.319 154.344C649.85 165.426 643.949 221.505 643.792 222.984C645.23 224.268 646.243 225.958 646.698 227.831C647.153 229.703 647.029 231.67 646.341 233.47C645.654 235.27 644.436 236.82 642.848 237.913C641.26 239.006 639.378 239.592 637.45 239.593C635.521 239.594 633.638 239.01 632.049 237.918C630.461 236.826 629.241 235.278 628.552 233.478C627.862 231.679 627.736 229.712 628.19 227.84C628.643 225.967 629.655 224.275 631.091 222.99Z" fill="#FFB8B8"></path><path d="M551.111 430.671H541.154L536.417 392.292L551.113 392.292L551.111 430.671Z" fill="#FFB6B6"></path><path d="M553.65 440.316L521.545 440.315V439.909C521.546 436.597 522.862 433.421 525.206 431.079C527.549 428.737 530.727 427.422 534.042 427.422H534.042L539.907 422.976L550.848 427.422L553.651 427.422L553.65 440.316Z" fill="#2F2E41"></path><path d="M638.863 430.671H628.907L624.17 392.292L638.866 392.292L638.863 430.671Z" fill="#FFB6B6"></path><path d="M641.403 440.316L609.298 440.315V439.909C609.299 436.597 610.615 433.421 612.959 431.079C615.302 428.737 618.48 427.422 621.794 427.422H621.795L627.66 422.976L638.601 427.422L641.404 427.422L641.403 440.316Z" fill="#2F2E41"></path><path d="M623.72 225.264L632.094 304.768C632.094 304.768 643.243 384.375 641.149 395.359C639.056 406.343 641.673 407.912 641.673 407.912L622.569 406.553C622.569 406.553 623.093 399.753 619.952 396.615C616.812 393.476 618.382 384.061 618.382 384.061L581.324 254.555L558.818 322.552C558.818 322.552 555.154 397.349 554.63 398.395C554.107 399.441 552.537 413.564 552.537 413.564H533.171C533.171 413.564 535.788 405.195 532.124 402.58C528.46 399.964 525.32 402.057 528.46 397.349C531.601 392.642 532.647 386.888 531.601 384.273C530.554 381.657 530.554 371.196 530.554 371.196C530.554 371.196 532.124 229.972 541.022 225.264C549.92 220.557 623.72 225.264 623.72 225.264Z" fill="#2F2E41"></path><path d="M584.06 64.2881C595.436 64.2881 604.658 55.0724 604.658 43.7042C604.658 32.3361 595.436 23.1204 584.06 23.1204C572.685 23.1204 563.463 32.3361 563.463 43.7042C563.463 55.0724 572.685 64.2881 584.06 64.2881Z" fill="#FFB8B8"></path><path d="M645.124 134.767L624.866 142.028L618.696 144.237L614.193 86.7532L629.648 94.9448C629.674 94.9639 629.697 94.9868 629.716 95.0127C632.393 97.9668 634.634 101.288 636.369 104.877C644.845 122.096 645.124 134.767 645.124 134.767Z" fill="#3F3D56"></path><path d="M505.569 218.133C505.569 218.133 526.159 154.204 526.519 153.438C529.215 132.972 536.972 123.945 538.134 124.925L558.154 131.856C558.154 131.856 552.199 150.699 548.167 161.892C544.315 172.588 517.931 221.966 517.19 223.256C517.986 225.011 518.229 226.967 517.889 228.863C517.548 230.76 516.639 232.509 515.283 233.878C513.926 235.247 512.185 236.172 510.291 236.531C508.396 236.89 506.437 236.666 504.673 235.889C502.909 235.111 501.423 233.816 500.411 232.176C499.399 230.536 498.909 228.627 499.006 226.703C499.103 224.778 499.783 222.929 500.954 221.399C502.126 219.868 503.736 218.73 505.569 218.133H505.569Z" fill="#FFB8B8"></path><path d="M567.77 90.4551C567.77 90.4551 550.438 81.9662 543.715 98.6388C539.313 109.883 537.228 114.787 534.288 126.498C534.288 126.498 551.956 129.147 557.621 139.124L567.77 90.4551Z" fill="#3F3D56"></path><path d="M630.839 233.929C590.948 242.162 538.086 228.008 538.086 228.008L552.188 166.922L547.174 102.993C546.562 95.1758 551.018 87.8476 557.949 85.2508L567.521 81.6683L575.432 70.3496L598.03 71.0906L607.064 82.9734L614.193 86.7531L629.648 94.9447L629.716 94.9787V95.0126L624.866 142.028L621.941 170.375C621.941 170.375 630.825 202.258 629.002 206.486C627.179 210.708 628.764 208.668 629.206 210.925C629.648 213.182 631.002 213.325 631.206 217.771C631.417 222.21 630.839 233.929 630.839 233.929Z" fill="#3F3D56"></path><path d="M606.405 36.3744C604.777 34.7697 607.227 30.5213 606.765 28.2835C606.234 25.7179 603.405 25.6428 602.73 23.1113C602.004 20.3879 599.1 18.9054 596.416 18.0422C589.534 15.8417 582.191 15.5056 575.136 17.0683C572.014 17.8301 568.94 18.7764 565.93 19.9022C563.852 20.633 565.856 18.6445 563.778 19.3752C562.992 19.5504 562.298 20.0106 561.83 20.6669C561.457 21.3727 561.961 22.5014 562.746 22.3584C560.21 23.4763 557.673 24.5942 555.137 25.712C556.559 27.2013 557.982 28.6905 559.405 30.1799C557.382 29.6046 555.226 32.0143 556.023 33.9586C556.344 34.5724 556.809 35.099 557.379 35.4932C557.949 35.8873 558.606 36.1371 559.294 36.221C561.579 36.6653 559.846 38.8383 562.173 38.796C564.5 38.7537 580.729 33.9862 581.861 36.0191C582.666 37.4666 582.578 39.384 583.728 40.5767C585.2 42.1025 587.77 41.5445 589.643 40.5511C591.516 39.5578 593.416 38.1925 595.524 38.4307C597.724 38.6793 599.388 42.7422 599.929 44.8875C600.471 47.0329 600.129 49.2902 599.784 51.4759C599.331 54.3464 594.797 57.2168 594.344 60.0872C599.376 61.478 604.775 57.0528 606.765 49.3573C606.566 44.4926 609.873 39.7939 606.405 36.3744Z" fill="#2F2E41"></path><path d="M286.195 303.705C225.56 303.707 172.803 258.505 165.009 196.851L166.499 196.663C174.196 257.555 226.31 302.2 286.196 302.204C291.284 302.204 296.367 301.883 301.415 301.244C367.464 292.906 414.411 232.424 406.067 166.419L407.557 166.23C416.004 233.056 368.474 294.291 301.604 302.733C296.493 303.379 291.347 303.704 286.195 303.705Z" fill="#3F3D56"></path><path d="M289.451 328.797H265.577C265.067 328.798 264.563 328.683 264.103 328.462C263.644 328.241 263.24 327.919 262.923 327.519C262.61 327.13 262.389 326.675 262.277 326.189C262.165 325.702 262.164 325.196 262.276 324.709C264.541 314.718 264.407 304.332 261.885 294.402C261.713 293.716 261.762 292.993 262.025 292.337C262.288 291.68 262.752 291.123 263.35 290.746C271.609 285.633 280.603 285.792 290.846 291.235C291.312 291.48 291.714 291.829 292.023 292.255C292.331 292.681 292.537 293.173 292.624 293.691C294.32 304.354 294.379 315.212 292.8 325.892C292.687 326.699 292.286 327.438 291.67 327.972C291.055 328.506 290.266 328.799 289.451 328.797Z" fill="#FFAC4A"></path><path d="M180.602 201.266H156.728C156.218 201.268 155.714 201.153 155.255 200.932C154.795 200.711 154.392 200.388 154.075 199.989C153.761 199.6 153.54 199.145 153.428 198.659C153.316 198.172 153.316 197.666 153.427 197.179C155.701 187.153 155.558 176.73 153.01 166.77C152.849 166.114 152.888 165.425 153.122 164.792C153.356 164.158 153.775 163.609 154.323 163.216C166.6 154.392 176.268 154.648 183.059 163.978C183.365 164.403 183.569 164.893 183.653 165.41C185.468 176.312 185.568 187.43 183.951 198.362C183.838 199.169 183.437 199.908 182.822 200.442C182.206 200.976 181.418 201.269 180.602 201.266Z" fill="#CCCCCC"></path><path d="M278.296 306.405H270.083C269.63 306.404 269.195 306.223 268.875 305.902C268.554 305.582 268.374 305.147 268.374 304.694C268.374 304.24 268.554 303.806 268.875 303.485C269.195 303.164 269.63 302.983 270.083 302.982H278.296C278.75 302.982 279.186 303.163 279.507 303.484C279.828 303.805 280.008 304.24 280.008 304.694C280.008 305.147 279.828 305.583 279.507 305.904C279.186 306.225 278.75 306.405 278.296 306.405Z" fill="white"></path><path d="M288.338 313.166H270.083C269.63 313.165 269.195 312.985 268.875 312.664C268.554 312.343 268.374 311.908 268.374 311.455C268.374 311.002 268.554 310.567 268.875 310.246C269.195 309.926 269.63 309.745 270.083 309.744H288.338C288.791 309.745 289.226 309.926 289.546 310.246C289.867 310.567 290.047 311.002 290.047 311.455C290.047 311.908 289.867 312.343 289.546 312.664C289.226 312.985 288.791 313.165 288.338 313.166Z" fill="white"></path><path d="M173.201 177.374H164.988C164.534 177.373 164.1 177.193 163.779 176.872C163.459 176.551 163.279 176.116 163.279 175.663C163.279 175.21 163.459 174.775 163.779 174.454C164.1 174.134 164.534 173.953 164.988 173.952H173.201C173.654 173.953 174.089 174.134 174.409 174.454C174.73 174.775 174.91 175.21 174.91 175.663C174.91 176.116 174.73 176.551 174.409 176.872C174.089 177.193 173.654 177.373 173.201 177.374Z" fill="white"></path><path d="M173.201 183.376H164.988C164.534 183.375 164.1 183.194 163.779 182.873C163.459 182.553 163.279 182.118 163.279 181.665C163.279 181.211 163.459 180.777 163.779 180.456C164.1 180.135 164.534 179.954 164.988 179.953H173.201C173.654 179.954 174.089 180.135 174.409 180.456C174.73 180.777 174.91 181.211 174.91 181.665C174.91 182.118 174.73 182.553 174.409 182.873C174.089 183.194 173.654 183.375 173.201 183.376Z" fill="white"></path><path d="M173.201 189.377H164.988C164.534 189.376 164.1 189.195 163.779 188.875C163.459 188.554 163.279 188.119 163.279 187.666C163.279 187.213 163.459 186.778 163.779 186.457C164.1 186.136 164.534 185.956 164.988 185.955H173.201C173.654 185.956 174.089 186.136 174.409 186.457C174.73 186.778 174.91 187.213 174.91 187.666C174.91 188.119 174.73 188.554 174.409 188.875C174.089 189.195 173.654 189.376 173.201 189.377Z" fill="white"></path><path d="M501.925 229.453H425.607C423.562 229.451 421.601 228.638 420.155 227.192C418.708 225.747 417.895 223.788 417.893 221.744V174.77C417.895 172.726 418.708 170.767 420.155 169.322C421.601 167.876 423.562 167.063 425.607 167.061H501.925C503.97 167.063 505.931 167.876 507.378 169.322C508.824 170.767 509.637 172.726 509.64 174.77V221.744C509.637 223.788 508.824 225.747 507.378 227.192C505.931 228.638 503.97 229.451 501.925 229.453Z" fill="#E6E6E6"></path><path d="M471.603 223.403H430.972C429.056 223.401 427.22 222.639 425.865 221.286C424.511 219.932 423.749 218.097 423.747 216.183V180.332C423.749 178.417 424.511 176.582 425.865 175.229C427.22 173.875 429.056 173.114 430.972 173.112H496.561C498.476 173.114 500.313 173.875 501.667 175.229C503.022 176.582 503.784 178.417 503.786 180.332V191.242C503.776 199.769 500.382 207.943 494.349 213.972C488.315 220.002 480.135 223.393 471.603 223.403Z" fill="white"></path><path d="M490.018 192.743H437.515C437.061 192.743 436.625 192.562 436.304 192.241C435.983 191.921 435.802 191.485 435.802 191.031C435.802 190.578 435.983 190.142 436.304 189.821C436.625 189.501 437.061 189.32 437.515 189.32H490.018C490.472 189.32 490.907 189.501 491.229 189.821C491.55 190.142 491.73 190.578 491.73 191.031C491.73 191.485 491.55 191.921 491.229 192.241C490.907 192.562 490.472 192.743 490.018 192.743Z" fill="#FFAC4A"></path><path d="M445.728 199.504H437.515C437.061 199.503 436.627 199.323 436.306 199.002C435.986 198.681 435.806 198.246 435.806 197.793C435.806 197.34 435.986 196.905 436.306 196.584C436.627 196.263 437.061 196.083 437.515 196.082H445.728C446.181 196.083 446.616 196.263 446.936 196.584C447.256 196.905 447.436 197.34 447.436 197.793C447.436 198.246 447.256 198.681 446.936 199.002C446.616 199.323 446.181 199.503 445.728 199.504Z" fill="#FFAC4A"></path><path d="M460.274 206.266H437.515C437.061 206.266 436.625 206.086 436.304 205.765C435.983 205.444 435.802 205.009 435.802 204.555C435.802 204.101 435.983 203.666 436.304 203.345C436.625 203.024 437.061 202.844 437.515 202.844H460.274C460.728 202.844 461.163 203.024 461.484 203.345C461.806 203.666 461.986 204.101 461.986 204.555C461.986 205.009 461.806 205.444 461.484 205.765C461.163 206.086 460.728 206.266 460.274 206.266Z" fill="#FFAC4A"></path><path d="M415.229 182.259C424.146 182.259 431.374 175.036 431.374 166.126C431.374 157.215 424.146 149.992 415.229 149.992C406.313 149.992 399.085 157.215 399.085 166.126C399.085 175.036 406.313 182.259 415.229 182.259Z" fill="#3F3D56"></path><path d="M232.476 43.3976C233.545 37.9765 235.671 32.8188 238.735 28.2191C241.798 23.6194 245.738 19.6677 250.33 16.5896C259.603 10.3731 270.967 8.09252 281.923 10.2495C287.348 11.3175 292.509 13.4428 297.112 16.5041C301.714 19.5654 305.669 23.5027 308.749 28.0912C311.829 32.6797 313.975 37.8295 315.063 43.2467C316.152 48.6638 316.162 54.2422 315.093 59.6633L313.62 59.3733C315.701 48.8155 313.501 37.8638 307.502 28.9274C301.503 19.991 292.198 13.8021 281.633 11.722C271.068 9.64193 260.109 11.8411 251.166 17.8358C242.224 23.8305 236.031 33.1297 233.949 43.6875L232.476 43.3976Z" fill="#3F3D56"></path><path d="M248.464 69.9421L224.61 70.9294C224.1 70.9516 223.592 70.8582 223.124 70.6562C222.656 70.4541 222.239 70.1488 221.906 69.763C221.577 69.3872 221.337 68.9418 221.205 68.4602C221.073 67.9786 221.051 67.4733 221.142 66.9823C222.973 57.0073 222.439 46.7425 219.585 37.0107C219.364 36.2664 219.409 35.4688 219.711 34.7538C220.013 34.0388 220.554 33.4507 221.242 33.0897C231.013 28.0169 240.167 27.7596 248.451 32.3243C248.885 32.56 249.263 32.8875 249.557 33.2839C249.852 33.6804 250.056 34.1363 250.156 34.6198C252.312 45.2393 252.829 56.126 251.689 66.9017C251.61 67.7126 251.24 68.4673 250.647 69.0263C250.054 69.5853 249.278 69.9107 248.464 69.9421Z" fill="#FFAC4A"></path><path d="M247.454 54.3402L229.215 55.0951C228.99 55.1046 228.766 55.0697 228.555 54.9925C228.343 54.9153 228.149 54.7972 227.984 54.645C227.818 54.4928 227.684 54.3094 227.589 54.1055C227.495 53.9015 227.441 53.6809 227.432 53.4562C227.423 53.2316 227.458 53.0073 227.535 52.7962C227.613 52.5851 227.731 52.3913 227.883 52.2259C228.036 52.0606 228.219 51.9269 228.424 51.8324C228.628 51.738 228.849 51.6847 229.073 51.6756L247.312 50.9207C247.537 50.9114 247.761 50.9464 247.973 51.0237C248.184 51.101 248.378 51.2192 248.543 51.3714C248.708 51.5236 248.842 51.7068 248.937 51.9107C249.031 52.1146 249.085 52.3351 249.094 52.5596C249.104 52.7841 249.069 53.0083 248.991 53.2193C248.914 53.4303 248.796 53.624 248.643 53.7893C248.491 53.9547 248.308 54.0884 248.104 54.1829C247.9 54.2775 247.679 54.3309 247.454 54.3402Z" fill="white"></path><path d="M247.206 48.3439L228.967 49.0988C228.513 49.1176 228.07 48.9554 227.736 48.6481C227.402 48.3407 227.204 47.9133 227.185 47.4598C227.166 47.0064 227.328 46.564 227.636 46.2301C227.944 45.8962 228.371 45.698 228.825 45.6792L247.064 44.9243C247.518 44.9055 247.96 45.0677 248.295 45.375C248.629 45.6824 248.827 46.1098 248.846 46.5633C248.865 47.0167 248.702 47.4591 248.395 47.793C248.087 48.1269 247.66 48.3251 247.206 48.3439Z" fill="white"></path><path d="M404.574 62.392H328.255C326.21 62.3897 324.249 61.5767 322.803 60.1314C321.357 58.6861 320.543 56.7265 320.541 54.6826V7.7094C320.543 5.66546 321.357 3.70589 322.803 2.26059C324.249 0.8153 326.21 0.00231713 328.255 0H404.574C406.619 0.00230918 408.58 0.815288 410.026 2.26058C411.472 3.70588 412.286 5.66545 412.288 7.7094V54.6826C412.286 56.7265 411.472 58.6861 410.026 60.1314C408.58 61.5767 406.619 62.3897 404.574 62.392Z" fill="#E6E6E6"></path><path d="M374.251 56.3414H333.62C331.705 56.3393 329.868 55.578 328.513 54.2244C327.159 52.8709 326.397 51.0356 326.395 49.1213V13.2704C326.397 11.3561 327.159 9.52088 328.513 8.16732C329.868 6.81376 331.705 6.0524 333.62 6.05029H399.209C401.125 6.05242 402.961 6.81379 404.315 8.16735C405.67 9.52092 406.432 11.3561 406.434 13.2704V24.1806C406.424 32.7072 403.03 40.8819 396.997 46.9112C390.964 52.9404 382.783 56.3319 374.251 56.3414Z" fill="white"></path><path d="M392.666 25.6816H340.163C339.709 25.6816 339.273 25.5013 338.952 25.1804C338.631 24.8595 338.451 24.4243 338.451 23.9704C338.451 23.5166 338.631 23.0814 338.952 22.7605C339.273 22.4396 339.709 22.2593 340.163 22.2593H392.666C393.12 22.2593 393.556 22.4396 393.877 22.7605C394.198 23.0814 394.378 23.5166 394.378 23.9704C394.378 24.4243 394.198 24.8595 393.877 25.1804C393.556 25.5013 393.12 25.6816 392.666 25.6816Z" fill="#FFAC4A"></path><path d="M348.376 32.4432H340.163C339.709 32.4423 339.275 32.2616 338.954 31.9407C338.634 31.6199 338.454 31.1852 338.454 30.732C338.454 30.2788 338.634 29.844 338.954 29.5232C339.275 29.2024 339.709 29.0217 340.163 29.0208H348.376C348.829 29.0217 349.264 29.2024 349.584 29.5232C349.905 29.844 350.085 30.2788 350.085 30.732C350.085 31.1852 349.905 31.6199 349.584 31.9407C349.264 32.2616 348.829 32.4423 348.376 32.4432Z" fill="#FFAC4A"></path><path d="M362.922 39.2047H340.163C339.709 39.2047 339.273 39.0244 338.952 38.7035C338.631 38.3826 338.451 37.9473 338.451 37.4935C338.451 37.0396 338.631 36.6044 338.952 36.2834C339.273 35.9625 339.709 35.7822 340.163 35.7822H362.922C363.375 35.7832 363.81 35.9639 364.13 36.2847C364.451 36.6055 364.631 37.0402 364.631 37.4935C364.631 37.9467 364.451 38.3814 364.13 38.7022C363.81 39.023 363.375 39.2037 362.922 39.2047Z" fill="#FFAC4A"></path><path d="M329.611 70.5237C334.318 62.9563 331.996 53.0084 324.423 48.3044C316.851 43.6004 306.896 45.9216 302.189 53.489C297.482 61.0564 299.805 71.0043 307.377 75.7082C314.95 80.4122 324.904 78.091 329.611 70.5237Z" fill="#3F3D56"></path><path d="M678.31 441H456.505C456.322 441 456.147 440.927 456.017 440.798C455.888 440.669 455.815 440.493 455.815 440.31C455.815 440.127 455.888 439.952 456.017 439.823C456.147 439.693 456.322 439.621 456.505 439.621H678.31C678.493 439.621 678.668 439.693 678.798 439.823C678.927 439.952 679 440.127 679 440.31C679 440.493 678.927 440.669 678.798 440.798C678.668 440.927 678.493 441 678.31 441Z" fill="#CCCCCC"></path><path d="M100.838 187.867C94.2141 170.368 94.8176 150.957 102.515 133.904C110.213 116.85 124.375 103.551 141.885 96.9316C159.395 90.3124 178.819 90.9155 195.884 98.6081C212.949 106.301 226.257 120.453 232.881 137.951L231.476 138.482C228.267 130.002 223.417 122.237 217.204 115.63C210.991 109.024 203.537 103.704 195.267 99.9762C186.997 96.2482 178.073 94.1845 169.005 93.903C159.937 93.6214 150.902 95.1275 142.416 98.3352C133.931 101.543 126.16 106.39 119.549 112.598C112.938 118.807 107.615 126.256 103.884 134.521C100.154 142.785 98.0888 151.703 97.8071 160.765C97.5253 169.827 99.0324 178.856 102.242 187.335L100.838 187.867Z" fill="#3F3D56"></path><path d="M162.586 117.997H138.712C138.202 117.998 137.698 117.884 137.238 117.662C136.779 117.441 136.375 117.119 136.058 116.72C135.745 116.331 135.524 115.876 135.412 115.389C135.3 114.902 135.299 114.397 135.411 113.91C137.671 103.941 137.543 93.5805 135.037 83.6709C134.86 82.9696 134.914 82.2296 135.193 81.5619C135.471 80.8942 135.959 80.3345 136.582 79.9669C145.23 74.9361 154.466 75.0896 164.031 80.4244C164.484 80.6711 164.874 81.018 165.173 81.4385C165.471 81.859 165.669 82.342 165.752 82.8507C167.455 93.5261 167.516 104.399 165.934 115.093C165.822 115.899 165.421 116.638 164.805 117.172C164.19 117.706 163.401 117.999 162.586 117.997Z" fill="#FFAC4A"></path><path d="M151.431 94.8548H143.218C142.765 94.8539 142.33 94.6732 142.01 94.3524C141.689 94.0315 141.509 93.5968 141.509 93.1436C141.509 92.6904 141.689 92.2557 142.01 91.9348C142.33 91.614 142.765 91.4333 143.218 91.4324H151.431C151.884 91.4333 152.319 91.614 152.639 91.9348C152.96 92.2557 153.14 92.6904 153.14 93.1436C153.14 93.5968 152.96 94.0315 152.639 94.3524C152.319 94.6732 151.884 94.8539 151.431 94.8548Z" fill="white"></path><path d="M161.473 101.616H143.218C142.764 101.616 142.328 101.436 142.007 101.115C141.686 100.794 141.506 100.359 141.506 99.9051C141.506 99.4513 141.686 99.016 142.007 98.6951C142.328 98.3741 142.764 98.1938 143.218 98.1938H161.473C161.926 98.1948 162.361 98.3755 162.681 98.6963C163.002 99.0172 163.182 99.4519 163.182 99.9051C163.182 100.358 163.002 100.793 162.681 101.114C162.361 101.435 161.926 101.615 161.473 101.616Z" fill="white"></path><path d="M84.0326 186.921H7.71454C5.66922 186.919 3.70833 186.106 2.26208 184.661C0.815822 183.215 0.00230674 181.256 0 179.212V132.239C0.00230674 130.195 0.815822 128.235 2.26208 126.79C3.70833 125.345 5.66922 124.532 7.71454 124.529H84.0326C86.0779 124.532 88.0388 125.345 89.4851 126.79C90.9314 128.235 91.7449 130.195 91.7472 132.239V179.212C91.7449 181.256 90.9314 183.215 89.4851 184.661C88.0388 186.106 86.0779 186.919 84.0326 186.921Z" fill="#E6E6E6"></path><path d="M53.7102 180.871H13.0792C11.1636 180.869 9.32712 180.108 7.97258 178.754C6.61804 177.4 5.85609 175.565 5.85388 173.651V137.8C5.85609 135.886 6.61804 134.05 7.97258 132.697C9.32712 131.343 11.1636 130.582 13.0792 130.58H78.6681C80.5836 130.582 82.4201 131.343 83.7746 132.697C85.1291 134.05 85.8909 135.886 85.8931 137.8V148.71C85.8834 157.237 82.4896 165.411 76.4562 171.441C70.4228 177.47 62.2426 180.861 53.7102 180.871Z" fill="white"></path><path d="M72.1251 150.211H19.6221C19.168 150.211 18.7324 150.031 18.4113 149.71C18.0902 149.389 17.9098 148.954 17.9098 148.5C17.9098 148.046 18.0902 147.611 18.4113 147.29C18.7324 146.969 19.168 146.789 19.6221 146.789H72.1251C72.5793 146.789 73.0148 146.969 73.3359 147.29C73.657 147.611 73.8374 148.046 73.8374 148.5C73.8374 148.954 73.657 149.389 73.3359 149.71C73.0148 150.031 72.5793 150.211 72.1251 150.211Z" fill="#FFAC4A"></path><path d="M27.8349 156.973H19.622C19.1685 156.972 18.7338 156.791 18.4135 156.47C18.0931 156.149 17.9132 155.715 17.9132 155.261C17.9132 154.808 18.0931 154.373 18.4135 154.053C18.7338 153.732 19.1685 153.551 19.622 153.55H27.8349C28.2884 153.551 28.723 153.732 29.0434 154.053C29.3637 154.373 29.5437 154.808 29.5437 155.261C29.5437 155.715 29.3637 156.149 29.0434 156.47C28.723 156.791 28.2884 156.972 27.8349 156.973Z" fill="#FFAC4A"></path><path d="M42.3808 163.734H19.622C19.1685 163.733 18.7338 163.553 18.4135 163.232C18.0931 162.911 17.9132 162.476 17.9132 162.023C17.9132 161.57 18.0931 161.135 18.4135 160.814C18.7338 160.493 19.1685 160.313 19.622 160.312H42.3808C42.835 160.312 43.2705 160.492 43.5916 160.813C43.9128 161.134 44.0932 161.569 44.0932 162.023C44.0932 162.477 43.9128 162.912 43.5916 163.233C43.2705 163.554 42.835 163.734 42.3808 163.734Z" fill="#FFAC4A"></path><path d="M114.166 193.553C118.873 185.985 116.55 176.037 108.978 171.333C101.405 166.629 91.4507 168.951 86.7435 176.518C82.0364 184.085 84.3591 194.033 91.9316 198.737C99.504 203.441 109.459 201.12 114.166 193.553Z" fill="#3F3D56"></path><path d="M244.41 163.007H220.536C220.026 163.009 219.522 162.894 219.063 162.673C218.603 162.452 218.2 162.129 217.882 161.73C217.569 161.341 217.348 160.886 217.236 160.399C217.124 159.913 217.123 159.407 217.235 158.92C219.491 148.969 219.367 138.627 216.875 128.733C216.698 128.022 216.758 127.273 217.046 126.599C217.333 125.925 217.833 125.363 218.469 124.999C230.067 118.364 239.25 118.547 246.545 125.559C247.056 126.059 247.392 126.71 247.505 127.416C249.277 138.233 249.363 149.26 247.759 160.103C247.646 160.91 247.245 161.649 246.629 162.183C246.014 162.717 245.225 163.01 244.41 163.007Z" fill="#FF6584"></path><path d="M234.757 140.616H226.544C226.09 140.615 225.656 140.434 225.335 140.113C225.015 139.792 224.835 139.358 224.835 138.904C224.835 138.451 225.015 138.016 225.335 137.696C225.656 137.375 226.09 137.194 226.544 137.193H234.757C235.21 137.194 235.645 137.375 235.965 137.696C236.285 138.016 236.465 138.451 236.465 138.904C236.465 139.358 236.285 139.792 235.965 140.113C235.645 140.434 235.21 140.615 234.757 140.616Z" fill="white"></path><path d="M244.798 147.377H226.544C226.09 147.377 225.654 147.197 225.333 146.876C225.012 146.555 224.831 146.12 224.831 145.666C224.831 145.212 225.012 144.777 225.333 144.456C225.654 144.135 226.09 143.955 226.544 143.955H244.798C245.252 143.956 245.687 144.137 246.007 144.457C246.327 144.778 246.507 145.213 246.507 145.666C246.507 146.119 246.327 146.554 246.007 146.875C245.687 147.196 245.252 147.376 244.798 147.377Z" fill="white"></path></g><defs><clipPath id="clip0_2127_9431"><rect width="679" height="441" fill="white"></rect></clipPath></defs></svg>