<svg xmlns="http://www.w3.org/2000/svg" width="587" height="422" viewBox="0 0 587 422" fill="none"><g clip-path="url(#clip0_2127_9498)"><path d="M430.673 0.243896H0.183594V276.178H430.673V0.243896Z" fill="#E6E6E6"></path><path d="M418.363 34.8528H12.4935V259.853H418.363V34.8528Z" fill="white"></path><path d="M430.489 0H0V18.3038H430.489V0Z" fill="#FFAC4A"></path><path d="M13.5913 12.7512C15.4635 12.7512 16.9812 11.2322 16.9812 9.35837C16.9812 7.48458 15.4635 5.96558 13.5913 5.96558C11.719 5.96558 10.2013 7.48458 10.2013 9.35837C10.2013 11.2322 11.719 12.7512 13.5913 12.7512Z" fill="white"></path><path d="M26.4573 12.7512C28.3296 12.7512 29.8473 11.2322 29.8473 9.35837C29.8473 7.48458 28.3296 5.96558 26.4573 5.96558C24.5851 5.96558 23.0674 7.48458 23.0674 9.35837C23.0674 11.2322 24.5851 12.7512 26.4573 12.7512Z" fill="white"></path><path d="M39.3234 12.7512C41.1957 12.7512 42.7134 11.2322 42.7134 9.35837C42.7134 7.48458 41.1957 5.96558 39.3234 5.96558C37.4512 5.96558 35.9335 7.48458 35.9335 9.35837C35.9335 11.2322 37.4512 12.7512 39.3234 12.7512Z" fill="white"></path><path d="M141.813 53.3599H62.4308V139.554H141.813V53.3599Z" fill="#E6E6E6"></path><path d="M255.118 53.3599H175.736V139.554H255.118V53.3599Z" fill="#E6E6E6"></path><path d="M368.423 53.3599H289.042V139.554H368.423V53.3599Z" fill="#E6E6E6"></path><path d="M141.813 155.156H62.4308V241.35H141.813V155.156Z" fill="#E6E6E6"></path><path d="M255.118 155.156H175.736V241.35H255.118V155.156Z" fill="#E6E6E6"></path><path d="M368.423 155.156H289.042V241.35H368.423V155.156Z" fill="#E6E6E6"></path><path d="M194.923 177.308L209.427 171.569L211.114 200.264C211.114 200.264 214.149 209.041 213.138 212.417C213.138 212.417 213.812 218.156 212.125 218.493C210.439 218.831 205.715 219.506 205.381 219.168C205.048 218.83 205.044 217.818 205.044 217.818C205.044 217.818 201.671 220.181 201.334 222.881C201.334 222.881 187.167 227.27 186.83 223.219C186.493 219.167 193.913 215.791 193.913 215.791L199.647 207.014L194.923 177.308Z" fill="white"></path><path d="M225.619 177.308L240.121 171.569L241.808 200.264C241.808 200.264 244.843 209.041 243.831 212.417C243.831 212.417 244.506 218.156 242.819 218.493C241.132 218.831 236.409 219.506 236.075 219.168C235.741 218.83 235.738 217.818 235.738 217.818C235.738 217.818 232.365 220.181 232.028 222.881C232.028 222.881 217.861 227.27 217.524 223.219C217.186 219.167 224.607 215.791 224.607 215.791L230.341 207.014L225.619 177.308Z" fill="white"></path><path d="M227.036 66.4992C227.036 66.4992 223.948 75.1359 227.526 79.0305L224.543 89.2905C224.543 89.2905 235.142 121.115 232.114 125.56C232.114 125.56 220.808 131.217 198.194 123.539L207.38 87.8757L206.068 72.8224L207.885 65.7501L211.922 65.3491C211.922 65.3491 209.5 74.4416 213.941 75.8563C218.383 77.271 222.716 65.5763 222.716 65.5763L227.036 66.4992Z" fill="#3F3D56"></path><path d="M84.4126 122.251L88.31 123.847L106.911 99.3794L112.757 128.101L116.654 127.392C119.154 102.63 121.195 77.3727 118.691 65.4267L104.254 64.8059L97.6993 85.73L94.5104 99.914L84.4126 122.251Z" fill="white"></path><path d="M320.953 65.2307C320.953 65.2307 315.634 72.6311 315.894 75.6176C316.154 78.6041 319.526 127.293 319.526 127.293L327.44 127.682L325.103 92.6263L327.049 83.1483L331.849 127.293L341.579 127.553L332.887 70.2948L331.201 65.2314L320.953 65.2307Z" fill="white"></path><path d="M351.015 184.454C349.603 182.758 347.175 181.841 344.844 181.345C344.911 181.133 337.754 179.653 337.633 179.958L334.934 177.806L326.643 182.115L321.985 178.94L319.821 179.709C319.909 179.327 313.103 180.507 313.103 180.507C311.803 180.554 310.142 180.635 308.283 180.778C301.774 181.279 301.272 198.153 301.272 198.153C304.267 196.927 307.461 196.258 310.696 196.178L312.455 216.36C321.505 215.584 330.996 216.487 340.833 218.699L345.446 202.834L356.189 198.653C356.189 198.653 354.353 188.463 351.015 184.454Z" fill="#3F3D56"></path><path d="M120.482 174.843C119.318 173.446 117.319 172.69 115.398 172.282C115.455 172.107 109.556 170.888 109.455 171.139L107.232 169.367L100.402 172.917L96.5629 170.302L94.7801 170.935C94.8529 170.62 89.2448 171.592 89.2448 171.592C88.1764 171.631 86.805 171.698 85.2739 171.816C79.9102 172.229 79.4976 186.131 79.4976 186.131C81.9654 185.12 84.5968 184.569 87.2624 184.504L88.7119 225.21C96.1683 224.57 103.988 225.315 112.092 227.138L115.892 189.989L124.744 186.544C124.744 186.544 123.233 178.148 120.482 174.843Z" fill="white"></path><path d="M500.415 185.678H538.474V165.296C538.474 160.245 536.469 155.401 532.901 151.829C529.332 148.257 524.492 146.251 519.445 146.251C514.398 146.251 509.557 148.257 505.988 151.829C502.42 155.401 500.415 160.245 500.415 165.296V185.678Z" fill="#2F2E41"></path><path d="M483.425 412.451H475.239L471.345 380.847H483.426L483.425 412.451Z" fill="#FFB6B6"></path><path d="M485.513 409.776H469.391C466.667 409.776 464.054 410.859 462.127 412.787C460.201 414.715 459.118 417.33 459.118 420.057V420.391H485.513V409.776Z" fill="#2F2E41"></path><path d="M581.28 401.517L574.152 405.545L555.237 379.943L565.758 373.999L581.28 401.517Z" fill="#FFB6B6"></path><path d="M581.785 398.161L567.746 406.09C565.373 407.431 563.63 409.66 562.9 412.287C562.169 414.915 562.511 417.724 563.851 420.099L564.015 420.39L587 407.403L581.785 398.161Z" fill="#2F2E41"></path><path d="M528.963 270.33L529.594 273.491C529.594 273.491 531.489 275.387 530.542 276.335C529.594 277.284 529.91 281.71 529.91 281.71C530.44 289.78 540.976 335.128 542.86 343.985C542.86 343.985 557.39 353.468 568.76 372.119C580.131 390.769 580.445 395.511 580.445 395.511L567.813 400.886L536.231 362.636C536.231 362.636 527.387 357.262 524.228 352.521C521.069 347.779 501.483 298.78 501.483 298.78L490.426 349.991C490.426 349.991 491.058 368.642 488.215 380.655C486.467 388.235 485.41 395.959 485.057 403.731L470.212 402.151C470.212 402.151 471.159 357.262 472.738 352.52C472.738 352.52 466.105 297.832 479.371 276.019L490.063 247.493L500.534 243.459L528.963 270.33Z" fill="#2F2E41"></path><path d="M519.641 151.233C499.712 151.574 499.715 181.243 519.641 181.581C539.569 181.24 539.566 151.571 519.641 151.233Z" fill="#FFB8B8"></path><path d="M504.303 165.62H507.69L508.612 163.312L508.151 165.62H526.677L526.076 160.79L530.579 165.62H535.07V163.003C535.072 160.981 534.675 158.979 533.904 157.11C533.132 155.242 532 153.544 530.573 152.113C529.145 150.683 527.45 149.548 525.584 148.773C523.719 147.997 521.719 147.598 519.699 147.596C517.678 147.595 515.678 147.992 513.811 148.764C511.944 149.537 510.248 150.669 508.818 152.098C507.389 153.527 506.254 155.223 505.48 157.09C504.706 158.958 504.306 160.959 504.305 162.981V163.003L504.303 165.62Z" fill="#2F2E41"></path><path d="M499.09 190.441L536.749 190.746L528.792 271.551C528.792 271.551 484.751 269.225 484.724 255.77L488.849 243.814L499.09 190.441Z" fill="#3F3D56"></path><path d="M538.367 279.362C537.789 278.653 537.372 277.825 537.148 276.937C536.923 276.049 536.896 275.122 537.068 274.222C537.24 273.323 537.606 272.472 538.143 271.729C538.679 270.987 539.371 270.371 540.17 269.925L538.534 255.7L546.929 252.595L548.958 272.718C549.613 274.111 549.735 275.697 549.302 277.174C548.869 278.652 547.909 279.92 546.605 280.738C545.302 281.556 543.744 281.868 542.226 281.614C540.708 281.361 539.335 280.56 538.367 279.362Z" fill="#FFB6B6"></path><path d="M531.797 197.707L536.752 190.775C536.752 190.775 540.143 190.022 544.15 194.7C548.156 199.378 550.493 257.851 550.493 257.851L535.803 261.193L527.123 219.76L531.797 197.707Z" fill="#3F3D56"></path><path d="M448.791 261.118L449.883 313.067L483.486 330.839L544.68 319.903L546.183 265.903L507.39 252.231L448.791 261.118Z" fill="white"></path><path d="M483.398 331.4L449.353 313.394L448.244 260.657L507.442 251.68L507.568 251.725L546.73 265.526L545.205 320.354L483.398 331.4ZM450.413 312.74L483.573 330.278L544.156 319.45L545.635 266.279L507.338 252.782L449.337 261.578L450.413 312.74Z" fill="#CACACA"></path><path d="M482.736 275.203L482.604 275.151L448.593 261.616L448.988 260.619L482.869 274.1L546.109 265.371L546.256 266.435L482.736 275.203Z" fill="#CACACA"></path><path d="M483.339 274.645L482.266 274.658L482.949 330.846L484.022 330.833L483.339 274.645Z" fill="#CACACA"></path><path d="M478.438 272.514L466.177 267.539L525.199 258.127L537.46 263.101L478.438 272.514Z" fill="#CACACA"></path><path d="M449.003 276.188L448.578 277.174L462.798 283.302L463.223 282.315L449.003 276.188Z" fill="#CACACA"></path><path d="M455.442 293.91L455.018 294.896L469.237 301.024L469.662 300.037L455.442 293.91Z" fill="#FFAC4A"></path><path d="M261.832 333.291L262.925 385.24L296.527 403.012L357.721 392.075L359.224 338.075L320.431 324.404L261.832 333.291Z" fill="white"></path><path d="M296.439 403.573L262.395 385.567L261.285 332.83L320.483 323.853L320.609 323.898L359.771 337.699L358.246 392.527L296.439 403.573ZM263.454 384.912L296.614 402.451L357.197 391.623L358.677 338.452L320.379 324.955L262.378 333.751L263.454 384.912Z" fill="#CACACA"></path><path d="M295.777 347.376L295.646 347.324L261.634 333.789L262.03 332.792L295.911 346.273L359.151 337.544L359.298 338.607L295.777 347.376Z" fill="#CACACA"></path><path d="M296.381 346.818L295.308 346.831L295.991 403.019L297.064 403.005L296.381 346.818Z" fill="#CACACA"></path><path d="M288.509 343.463L279.219 339.712L338.241 330.299L347.531 334.051L288.509 343.463Z" fill="#CACACA"></path><path d="M262.044 348.36L261.62 349.347L275.839 355.474L276.264 354.488L262.044 348.36Z" fill="#CACACA"></path><path d="M268.483 366.083L268.059 367.069L282.279 373.197L282.703 372.21L268.483 366.083Z" fill="#FFAC4A"></path><path d="M320.209 340.413L321.477 400.718L360.484 421.349L431.521 408.653L433.265 345.968L388.233 330.098L320.209 340.413Z" fill="#FFAC4A"></path><path d="M360.382 422L320.862 401.098L319.574 339.879L388.293 329.458L388.44 329.509L433.901 345.53L432.13 409.177L360.382 422ZM322.092 400.338L360.585 420.697L430.912 408.128L432.63 346.405L388.173 330.737L320.843 340.947L322.092 400.338Z" fill="#3F3D56"></path><path d="M359.614 356.764L359.461 356.703L319.978 340.992L320.438 339.833L359.768 355.484L433.18 345.35L433.35 346.585L359.614 356.764Z" fill="#3F3D56"></path><path d="M360.314 356.116L359.068 356.132L359.861 421.356L361.107 421.341L360.314 356.116Z" fill="#3F3D56"></path><path d="M351.808 352.251L340.392 347.868L408.907 336.941L420.324 341.325L351.808 352.251Z" fill="#3F3D56"></path><path d="M320.455 357.907L319.962 359.052L336.469 366.165L336.962 365.02L320.455 357.907Z" fill="#3F3D56"></path><path d="M327.93 378.48L327.437 379.625L343.944 386.738L344.437 385.593L327.93 378.48Z" fill="white"></path><path d="M467.843 269.708C468.671 269.319 469.404 268.752 469.99 268.049C470.576 267.345 471.001 266.522 471.235 265.636C471.469 264.751 471.506 263.825 471.344 262.923C471.181 262.022 470.823 261.167 470.295 260.419L477.922 248.303L471.696 241.869L461.165 259.13C459.969 260.102 459.17 261.479 458.921 263.001C458.671 264.522 458.987 266.083 459.81 267.387C460.633 268.69 461.905 269.647 463.386 270.075C464.866 270.503 466.452 270.372 467.843 269.708V269.708Z" fill="#FFB6B6"></path><path d="M504.877 193.626L499.413 190.022C499.413 190.022 495.197 190.968 490.712 199.601C486.228 208.234 468.144 246.829 468.144 246.829L475.577 254.38L495.408 224.102L504.877 193.626Z" fill="#3F3D56"></path></g><defs><clipPath id="clip0_2127_9498"><rect width="587" height="422" fill="white"></rect></clipPath></defs></svg>