<svg xmlns="http://www.w3.org/2000/svg" width="542" height="429" viewBox="0 0 542 429" fill="none"><g clip-path="url(#clip0_2127_9394)"><path d="M446.586 209.542L469.466 184.66L450.741 169.888L441.491 190.334L399.522 204.195C398.108 203.382 396.487 202.998 394.858 203.09C393.229 203.182 391.662 203.745 390.348 204.712C389.034 205.679 388.03 207.007 387.457 208.535C386.885 210.062 386.77 211.723 387.126 213.315C387.482 214.907 388.293 216.361 389.461 217.5C390.629 218.639 392.104 219.413 393.704 219.729C395.305 220.044 396.963 219.888 398.476 219.277C399.989 218.667 401.292 217.63 402.226 216.292L446.586 209.542Z" fill="#FFB6B6"></path><path d="M488.528 153.323C492.675 162.568 467.372 188.981 467.372 188.981C460.451 194.576 459.354 208.58 450.777 210.14C427.638 214.345 442.029 209.944 436.052 212.243C430.428 214.405 435.608 195.895 431.845 194.718C429.693 194.045 441.662 186.306 441.662 186.306C441.662 186.306 452.448 165.159 459.079 154.191C460.897 151.055 463.478 148.429 466.583 146.559C469.689 144.689 473.217 143.635 476.839 143.495C476.839 143.495 484.38 144.077 488.528 153.323Z" fill="#E6E6E6"></path><path d="M381.403 428.169H118.496C112.265 428.162 106.291 425.684 101.884 421.279C97.478 416.874 94.9995 410.902 94.9924 404.672V23.4975C94.9995 17.2677 97.478 11.2951 101.884 6.89003C106.291 2.48492 112.265 0.00703539 118.496 0H381.403C387.634 0.00703725 393.609 2.48492 398.015 6.89003C402.421 11.2951 404.9 17.2677 404.907 23.4975V404.672C404.9 410.902 402.421 416.874 398.015 421.279C393.609 425.684 387.634 428.162 381.403 428.169Z" fill="#3F3D56"></path><path d="M381.866 413.177H118.033C116.112 413.175 114.271 412.411 112.913 411.053C111.554 409.695 110.79 407.854 110.788 405.934V22.2353C110.79 20.3149 111.554 18.4738 112.913 17.1159C114.271 15.758 116.112 14.9941 118.033 14.9919H381.866C383.787 14.9941 385.628 15.758 386.987 17.1159C388.345 18.4738 389.109 20.3149 389.111 22.2353V405.934C389.109 407.854 388.345 409.695 386.987 411.053C385.628 412.411 383.787 413.175 381.866 413.177Z" fill="white"></path><path d="M130.905 191.55C131.641 181.552 132.857 169.261 142.751 163.92C147.42 161.4 152.363 162.291 157.057 164.256C161.593 166.154 165.866 168.417 170.751 169.309C179.171 170.762 187.836 169.463 195.46 165.605C203.14 161.787 209.301 155.484 212.94 147.72C214.814 143.771 216.362 139.492 219.122 136.046C220.511 134.236 222.351 132.825 224.459 131.953C226.567 131.081 228.867 130.779 231.129 131.078C241.504 132.358 248.388 141.446 256.659 146.796C260.637 149.369 265.204 151.248 270.021 151.018C274.961 150.781 279.439 148.443 283.225 145.391C291.258 138.915 295.65 128.899 304.081 122.864C308.078 120.074 312.716 118.341 317.564 117.826C322.411 117.311 327.31 118.031 331.804 119.919C340.445 123.645 346.563 131.994 348.179 141.182C348.566 143.446 348.666 145.75 348.476 148.038C348.371 149.388 350.475 149.381 350.58 148.038C350.895 143.276 350.105 138.506 348.272 134.1C346.438 129.693 343.611 125.77 340.01 122.637C332.551 116.204 322.131 114.113 312.653 116.589C307.826 117.868 303.391 120.319 299.74 123.724C295.841 127.319 292.765 131.676 289.474 135.805C286.263 139.833 282.72 143.723 278.213 146.324C276.055 147.639 273.637 148.468 271.126 148.754C268.615 149.039 266.072 148.774 263.674 147.977C258.809 146.337 254.687 142.956 250.795 139.72C246.782 136.384 242.789 133.046 237.966 130.926C233.482 128.955 228.34 127.999 223.672 129.94C219.463 131.69 216.678 135.323 214.613 139.252C212.518 143.24 211.025 147.54 208.58 151.343C206.215 154.983 203.18 158.141 199.637 160.649C192.439 165.79 183.686 168.29 174.858 167.726C170.061 167.386 165.7 165.871 161.356 163.885C156.562 161.694 151.513 159.415 146.118 160.477C141.465 161.393 137.551 164.553 134.833 168.328C131.695 172.687 130.316 178.031 129.596 183.279C129.22 186.025 129.005 188.787 128.801 191.55C128.702 192.9 130.806 192.894 130.905 191.55V191.55Z" fill="#E4E4E4"></path><path d="M502.726 418.039L492.738 418.039L487.986 379.523L502.727 379.524L502.726 418.039Z" fill="#FFB6B6"></path><path d="M502.459 414.776L491.802 410.448L491.488 410.319L485.603 414.776C482.373 414.776 479.269 416.022 476.936 418.255C474.603 420.487 473.223 423.535 473.083 426.76C473.067 426.937 473.067 427.123 473.067 427.308V427.719H505.273V414.776H502.459Z" fill="#2F2E41"></path><path d="M479.335 408.747L469.913 412.061L452.644 377.306L466.549 372.415L479.335 408.747Z" fill="#FFB6B6"></path><path d="M478 405.757L466.51 405.211L466.171 405.193L462.099 411.35C459.053 412.421 456.538 414.627 455.079 417.508C453.62 420.388 453.329 423.72 454.268 426.809C454.312 426.982 454.374 427.157 454.435 427.332L454.572 427.719L484.951 417.033L480.654 404.823L478 405.757Z" fill="#2F2E41"></path><path d="M506.255 251.97C515.393 251.616 504.074 324.415 504.074 324.415C504.074 324.415 507.385 388.33 506.683 391.684C505.981 395.038 506.594 404.085 506.594 404.085C504.804 400.827 486.334 403.286 486.334 403.286L483.821 338.508L470.993 286.606L453.207 321.397L470.254 374.798C470.254 374.798 477.157 381.185 476.423 383.708C475.689 386.232 457.607 391.923 454.284 392.052C450.961 392.181 452.462 387.964 452.301 383.812C452.14 379.659 436.504 341.174 431.004 328.08C425.504 314.985 429.78 296.521 432.587 283.105C435.395 269.688 450.164 244.51 450.164 244.51C468.497 223.837 497.117 252.324 506.255 251.97Z" fill="#2F2E41"></path><path d="M480.684 131.018C490.31 131.018 498.113 123.217 498.113 113.594C498.113 103.971 490.31 96.1702 480.684 96.1702C471.059 96.1702 463.256 103.971 463.256 113.594C463.256 123.217 471.059 131.018 480.684 131.018Z" fill="#FFB6B6"></path><path d="M471.97 142.534C468.215 144.766 465.969 148.866 464.68 153.038C462.293 160.763 460.856 168.75 460.401 176.822L455.441 224.982L445.869 248.694C466.339 246.917 511.735 255.256 511.735 255.256C511.735 255.256 513.421 254.694 511.735 253.008C510.048 251.321 508.406 252.815 510.093 251.129C511.779 249.443 510.617 251.321 510.055 249.635C509.492 247.949 510.055 249.073 510.617 248.511C511.179 247.949 506.264 242.891 506.264 242.891L510.762 213.354L516.384 153.775C509.638 145.344 496.07 140.374 496.07 140.374L492.564 134.065L475.035 135.467L471.97 142.534Z" fill="#E6E6E6"></path><path d="M522.988 209.143L518.662 183.655L503.611 186.382L504.934 208.676L498.346 255.082C496.811 255.636 495.472 256.626 494.49 257.928C493.508 259.231 492.927 260.792 492.817 262.419C492.707 264.046 493.073 265.671 493.87 267.094C494.668 268.517 495.862 269.677 497.308 270.434C498.753 271.19 500.388 271.509 502.012 271.353C503.636 271.196 505.179 270.571 506.454 269.552C507.729 268.534 508.679 267.167 509.19 265.618C509.701 264.069 509.75 262.405 509.332 260.828L522.988 209.143Z" fill="#FFB6B6"></path><path d="M510.553 149.503C520.293 152.306 524.13 188.678 524.13 188.678C528.542 206.231 520.192 213.623 518.073 213.546C512.051 213.326 508.715 208.173 505.387 210.286C503.483 211.495 503.128 197.609 503.128 197.609C503.128 197.609 496.298 184.689 492.202 172.544C490.98 169.132 490.642 165.466 491.219 161.888C491.795 158.31 493.268 154.936 495.499 152.08C495.499 152.08 500.814 146.699 510.553 149.503Z" fill="#E6E6E6"></path><path d="M500.627 108.269C500.57 105.439 500.249 101.818 498.266 98.9302C496.593 96.5009 493.217 94.5758 490.071 95.5383C490.106 94.9093 489.966 94.2829 489.667 93.7286C489.367 93.1743 488.92 92.7139 488.374 92.3986C487.168 91.7818 485.838 91.4467 484.483 91.4188C481.291 91.1209 477.984 90.8115 474.752 91.4245C471.124 92.1121 468.155 93.9799 466.614 96.5525L466.579 96.6326L466.264 98.1567C466.222 98.3611 466.136 98.554 466.013 98.7221C465.889 98.8903 465.73 99.0297 465.548 99.1307C465.365 99.2333 465.162 99.2941 464.953 99.309C464.744 99.3238 464.534 99.2923 464.339 99.2167C464.125 99.1365 463.894 99.1135 463.668 99.1499C463.442 99.1864 463.23 99.2811 463.053 99.4246C462.875 99.5681 462.738 99.7555 462.655 99.9682C462.572 100.181 462.546 100.412 462.579 100.638L462.665 101.245L461.754 101.073C461.525 101.029 461.289 101.046 461.069 101.124C460.849 101.202 460.654 101.336 460.504 101.514C460.354 101.693 460.254 101.908 460.215 102.137C460.176 102.367 460.199 102.603 460.281 102.821L460.533 103.514C460.345 103.516 460.159 103.557 459.987 103.632C459.814 103.708 459.659 103.818 459.53 103.955C459.346 104.155 459.23 104.408 459.199 104.678C459.169 104.947 459.224 105.22 459.358 105.456C460.38 107.199 461.827 108.654 463.565 109.685C464.346 110.155 465.189 110.516 466.069 110.756C466.253 110.808 466.442 110.853 466.637 110.893C473.673 112.41 480.927 112.627 488.042 111.535C487.623 112.938 487.462 114.406 487.566 115.867C487.628 116.695 487.915 117.491 488.397 118.167C488.879 118.844 489.537 119.376 490.3 119.705C490.625 119.815 490.958 119.896 491.297 119.946C491.622 119.999 491.942 120.077 492.254 120.181C492.715 120.35 493.123 120.637 493.438 121.014C493.752 121.392 493.961 121.845 494.043 122.329C494.126 122.812 494.079 123.309 493.908 123.769C493.737 124.229 493.447 124.636 493.068 124.948C493.068 124.948 494.57 126.191 494.759 126.128C495.497 125.802 496.114 125.253 496.524 124.558C499.384 120.444 500.765 114.967 500.627 108.269Z" fill="#2F2E41"></path><path d="M44.0314 371.071L41.984 381.34C41.8297 382.125 41.6685 382.924 41.4932 383.716C39.782 383.362 38.0077 383.461 36.3466 384.004C37.6645 385.886 38.8455 387.861 39.8805 389.913C38.5904 393.887 36.6972 397.561 33.5279 400.217C31.4112 401.952 28.8831 403.113 26.1873 403.587C23.4916 404.06 20.7191 403.832 18.1374 402.923L18.2285 402.517C14.8209 395.906 16.672 387.572 20.907 381.466C23.067 378.454 25.6263 375.749 28.5146 373.426C31.3753 371.043 34.4675 368.905 37.5316 366.795C38.2198 366.321 39.0335 366.064 39.8686 366.056C40.7038 366.047 41.5225 366.288 42.2202 366.747C42.9179 367.206 43.4629 367.862 43.7855 368.632C44.1082 369.403 44.1937 370.252 44.0314 371.071Z" fill="#E4E4E4"></path><path d="M18.8667 427.633C18.0049 421.357 17.1187 415.001 17.7231 408.658C18.2602 403.025 19.9787 397.523 23.4789 393.011C25.3367 390.621 27.5972 388.573 30.1589 386.96C30.8271 386.539 31.4413 387.597 30.7766 388.016C26.3444 390.816 22.9162 394.952 20.9863 399.825C18.8547 405.245 18.5126 411.154 18.8828 416.911C19.1051 420.393 19.5756 423.851 20.0502 427.307C20.0885 427.463 20.0655 427.628 19.9859 427.768C19.9064 427.908 19.7764 428.012 19.6225 428.059C19.466 428.102 19.2991 428.08 19.1581 428C19.0171 427.92 18.9134 427.788 18.8695 427.632L18.8667 427.633Z" fill="#F2F2F2"></path><path d="M248.95 9.19513C250.054 9.19513 250.949 8.30017 250.949 7.1962C250.949 6.09222 250.054 5.19727 248.95 5.19727C247.846 5.19727 246.95 6.09222 246.95 7.1962C246.95 8.30017 247.846 9.19513 248.95 9.19513Z" fill="white"></path><path d="M365.85 192.234H128.687C128.49 192.234 128.301 192.156 128.162 192.017C128.023 191.878 127.945 191.689 127.945 191.492L128.305 190.667L365.85 190.75C366.047 190.749 366.236 190.827 366.376 190.966C366.515 191.104 366.594 191.293 366.595 191.489C366.596 191.686 366.518 191.875 366.38 192.015C366.241 192.155 366.052 192.233 365.855 192.234H365.85V192.234Z" fill="#3F3D56"></path><path d="M173.799 187.043H172.344V191.19H173.799V187.043Z" fill="#3F3D56"></path><path d="M217.381 163.21H215.925V191.19H217.381V163.21Z" fill="#3F3D56"></path><path d="M261.053 129.563H259.597V191.19H261.053V129.563Z" fill="#3F3D56"></path><path d="M304.724 100.823H303.269V191.19H304.724V100.823Z" fill="#3F3D56"></path><path d="M348.396 166.715H346.94V191.19H348.396V166.715Z" fill="#3F3D56"></path><path d="M304.086 95.7858C306.546 95.7858 308.539 93.7925 308.539 91.3337C308.539 88.8749 306.546 86.8816 304.086 86.8816C301.627 86.8816 299.633 88.8749 299.633 91.3337C299.633 93.7925 301.627 95.7858 304.086 95.7858Z" fill="#CD9933"></path><path d="M261.116 121.902C263.575 121.902 265.569 119.908 265.569 117.45C265.569 114.991 263.575 112.998 261.116 112.998C258.656 112.998 256.662 114.991 256.662 117.45C256.662 119.908 258.656 121.902 261.116 121.902Z" fill="#CD9933"></path><path d="M347.757 162.966C350.217 162.966 352.211 160.973 352.211 158.514C352.211 156.055 350.217 154.062 347.757 154.062C345.298 154.062 343.304 156.055 343.304 158.514C343.304 160.973 345.298 162.966 347.757 162.966Z" fill="#CD9933"></path><path d="M215.49 346.642V294.111C215.49 293.438 216.274 292.891 217.241 292.891H225.054C226.02 292.891 226.804 293.438 226.804 294.111V346.779L215.49 346.642Z" fill="#3F3D56"></path><path d="M241.294 346.819V306.681C241.294 306.034 242.078 305.509 243.045 305.509H250.857C251.824 305.509 252.608 306.034 252.608 306.681V346.732L241.294 346.819Z" fill="#3F3D56"></path><path d="M292.9 346.725V326.311C292.832 326.067 293.613 325.856 294.651 325.837H302.463C303.502 325.856 304.283 326.067 304.214 326.311V346.779L292.9 346.725Z" fill="#3F3D56"></path><path d="M189.687 346.726V326.311C189.687 326.05 190.471 325.837 191.438 325.837H199.25C200.217 325.837 201.001 326.05 201.001 326.311V346.779L189.687 346.726Z" fill="#3F3D56"></path><path d="M267.097 346.522V247.945C267.097 246.681 267.881 245.656 268.848 245.656H276.66C277.627 245.656 278.411 246.681 278.411 247.945V346.779L267.097 346.522Z" fill="#CD9933"></path><path d="M337.884 347.686H161.19C161.004 347.686 160.826 347.613 160.695 347.481C160.563 347.35 160.489 347.171 160.489 346.985C160.489 346.799 160.563 346.621 160.695 346.49C160.826 346.358 161.004 346.284 161.19 346.284H337.884C338.07 346.284 338.248 346.358 338.38 346.49C338.511 346.621 338.585 346.799 338.585 346.985C338.585 347.171 338.511 347.35 338.38 347.481C338.248 347.613 338.07 347.686 337.884 347.686Z" fill="#3F3D56"></path><path d="M541.299 429H0.701164C0.515204 429 0.33686 428.926 0.205366 428.795C0.0738719 428.663 0 428.485 0 428.299C0 428.113 0.0738719 427.935 0.205366 427.803C0.33686 427.672 0.515204 427.598 0.701164 427.598H541.299C541.485 427.598 541.663 427.672 541.795 427.803C541.926 427.935 542 428.113 542 428.299C542 428.485 541.926 428.663 541.795 428.795C541.663 428.926 541.485 429 541.299 429Z" fill="#CACACA"></path><path d="M173.271 182.434C175.73 182.434 177.724 180.44 177.724 177.981C177.724 175.523 175.73 173.529 173.271 173.529C170.811 173.529 168.817 175.523 168.817 177.981C168.817 180.44 170.811 182.434 173.271 182.434Z" fill="#CD9933"></path><path d="M216.743 157.899C219.202 157.899 221.196 155.906 221.196 153.447C221.196 150.988 219.202 148.995 216.743 148.995C214.283 148.995 212.29 150.988 212.29 153.447C212.29 155.906 214.283 157.899 216.743 157.899Z" fill="#CD9933"></path></g><defs><clipPath id="clip0_2127_9394"><rect width="542" height="429" fill="white"></rect></clipPath></defs></svg>